<?xml version="1.0" encoding="UTF-8"?>
<!DOCTYPE svg PUBLIC "-//W3C//DTD SVG 1.1//EN" "http://www.w3.org/Graphics/SVG/1.1/DTD/svg11.dtd">
<!-- Creator: CorelDRAW -->
<svg xmlns="http://www.w3.org/2000/svg" xml:space="preserve" width="76.923mm" height="78.011mm" version="1.1" style="shape-rendering:geometricPrecision; text-rendering:geometricPrecision; image-rendering:optimizeQuality; fill-rule:evenodd; clip-rule:evenodd"
viewBox="0 0 7692.3 7801.1"
 xmlns:xlink="http://www.w3.org/1999/xlink"
 xmlns:xodm="http://www.corel.com/coreldraw/odm/2003">
 <defs>
  <style type="text/css">
   <![CDATA[
    .fil2 {fill:white}
    .fil1 {fill:white}
    .fil0 {fill:url(#id0)}
    .fil3 {fill:url(#id1)}
   ]]>
  </style>
  <linearGradient id="id0" gradientUnits="userSpaceOnUse" x1="3684.83" y1="6189.64" x2="3684.83" y2="981.26">
   <stop offset="0" style="stop-opacity:1; stop-color:#DB5000"/>
   <stop offset="1" style="stop-opacity:1; stop-color:#E86C26"/>
  </linearGradient>
  <linearGradient id="id1" gradientUnits="userSpaceOnUse" x1="2161.46" y1="5620.58" x2="2161.46" y2="703.54">
   <stop offset="0" style="stop-opacity:1; stop-color:#F4C118"/>
   <stop offset="1" style="stop-opacity:1; stop-color:#F7FFB2"/>
  </linearGradient>
 </defs>
 <g id="Camada_x0020_1">
  <metadata id="CorelCorpID_0Corel-Layer"/>
  <path class="fil0" d="M2347.32 1864.52c-71.38,45.76 -136.06,90.24 -206.55,136.22 -34.34,22.4 -68.83,44.98 -103.28,68.18 -34.5,23.23 -66.97,45.89 -102.01,67.2 -41.57,23.92 -124.32,82.8 -173.09,114.18l-346.69 228.91c-172.63,113.9 -343.56,224.69 -516.35,341.4 -56.2,37.96 -73.27,35.6 -72.95,69.83 0.45,47.93 0.06,96.05 0.06,144.01l0.01 2293.81c0,92.25 -3.78,192.68 0.33,283.92l228.31 4.13c21.75,0.55 34.42,-2.57 55.28,-2.47 19.38,0.09 38.77,0.04 58.15,0.04l111.5 2.16 0.49 -2501.35c12.49,-11.09 26.15,-18.67 41.85,-28.72 13.67,-8.73 29.38,-19.96 43.07,-28.99l173.53 -114.25c31.08,-19.61 60.23,-40.9 87.73,-57.3l531.89 -352.24c89.95,-58.97 177.89,-115.1 266.54,-176.24l267.81 -175.85c35.31,-26.06 83.84,-56.96 123.9,-82.71l869.56 -572.47c5.14,0.13 137.24,89.53 152.53,99.9 171.13,116.03 356.54,232.51 526.42,347.87l374.68 247.78c252.88,163.81 500.57,333.4 751.11,496.86 5.81,3.79 595.65,390.77 598.3,396.36 3.11,49.3 0.53,107.47 0.46,157.71 -0.07,51.65 0.12,103.3 -0.02,154.95l0.04 783.06c0,29.61 -0.29,46.4 4.33,74.5 14.37,87.34 -1.73,92.07 -4.25,143.95 -1.2,24.8 -0.05,52.48 -0.08,77.61l-0.05 780.29c-0.02,56.49 3.63,273.26 -0.66,311.17 -20.95,5.81 -1189.4,1.83 -1207.52,1.81 -403.4,-0.27 -806.83,-0.14 -1210.24,0.04 -4.37,-50.54 3.55,-69.87 -14.52,-117.42 -12.75,-33.59 -33.39,-61.34 -53.42,-79.48 -59.35,-53.76 -106.41,-55.26 -204.83,-57.97 -60.09,-1.66 -492.54,-19.17 -513.04,-12.44l-3.63 129.53c-14.52,5.72 -246.69,-3.82 -282.03,-5.35 -45.78,-1.98 -92.94,-3.1 -139.31,-4.16 -21.8,-0.5 -48.7,-4.88 -67.05,5.12 -40.16,21.89 -36.13,74.95 -0.66,93.39 21.63,11.25 173.94,10.21 205.43,11.41 92.36,3.54 186.6,2.83 278.9,8.01 4.78,23.13 -2.11,150.6 -3.42,183.31 -2.36,58.99 -3.32,119.55 -5.55,178.66 -93.24,0.42 -190.55,-5.81 -283.06,-8.26 -47.54,-1.26 -93.98,-2.74 -141.19,-4.05 -28.22,-0.79 -93.49,-8.21 -92.35,52.9 1.09,58.78 63.91,52.08 92.33,53.1 45.28,1.63 92.76,2.74 138.28,4 93.4,2.58 187.55,4 281.25,7.91 7.44,29.45 -8.24,111.29 0.09,135.03 150.97,6.99 304.18,8.71 454.62,13.01 69.83,2 154.78,12.18 212.88,-14.05 52.35,-23.62 92.65,-62.63 113.83,-118.87l2898.27 -1.08c3.19,-80.32 0.27,-166.85 0.27,-247.85l0.09 -2913.74c0.34,-28.85 -4.51,-24.88 -22.95,-36.79l-896.17 -592.5c-49.94,-32.39 -97.83,-63.65 -148.2,-98 -98.32,-67.04 -198.69,-130.25 -298.17,-197.06 -50.47,-33.89 -99.54,-66.84 -150.06,-99.02 -157.43,-100.28 -1332.9,-885.66 -1341.68,-885.82 -15.92,5.98 -68.28,43.43 -86.01,55.1 -193.22,127.13 -390.54,260.43 -585.04,386.23 -164.65,106.49 -336.16,224.25 -501.43,331.52l-166.61 110.42z"/>
  <path class="fil1" d="M4204.26 4780.4c21.47,10.39 61.2,20.31 85.03,27.99 29.55,9.52 57.24,17.99 85.82,27.55l347.13 112.22c21.52,7.09 162.56,54.64 171.77,54.67 -27.3,3.23 -154.49,-16.99 -191.48,-21.49 -64.57,-7.86 -130.07,-15.86 -194.71,-23.52 -127.93,-15.15 -258.72,-34.46 -386.24,-46.52l-154.13 249.78c-25.73,40.98 -51.86,82.72 -77.14,124.77 -24.13,40.14 -67.29,90.84 -31.46,149.42 32.94,53.86 80.75,48 154.05,48l1826.15 0c67.9,0 133.08,10.4 167.98,-34.12 36.8,-46.94 32.24,-103.92 -17.4,-141.49 -70.84,-53.61 -162.18,-112.62 -236.65,-167.23 -74.38,-54.55 -165.37,-113.48 -238.96,-167.84l-118.41 -83.54c-41.18,-27.65 -78.98,-57.01 -120.15,-84.61 -73.93,-49.56 -163.35,-115.16 -238.72,-168.01l-355.47 -250.44c-41.62,-28.58 -89.35,-71.18 -131.53,-73.5 -66.02,-3.62 -88.6,48.02 -113.87,88.43 -24.67,39.44 -228.83,367.38 -231.61,379.48z"/>
  <path class="fil2" d="M6734.75 6201.84c-54.39,5.87 -140.62,0.75 -198.45,0.75l-2564.9 0c-65.48,0 -130.97,0 -196.45,0 -33.2,0 -66.4,0.02 -99.61,0 -29.33,-0.01 -66.77,-4.95 -65.41,30.38 1.27,32.87 41.28,27.79 70.95,27.79l2266.08 0c58.95,0 749.09,-3.38 787.8,0.73 0,44.94 0,89.88 0,134.82 0,35.91 -12.67,104.59 30.83,101.67 20.85,-1.4 27.26,-17.26 27.4,-37.93l-0.09 -199.3 631.58 0.01c28.46,0.06 58.97,1.06 57.62,-30.14 -1.39,-32.02 -33.32,-28.04 -63.16,-28.03l-626.04 0.01 0.01 -3699.41c0,-32.1 10.11,-88.96 -29.57,-88.2 -39.99,0.75 -28.58,62.44 -28.58,93.73l-0.01 3693.12z"/>
  <path class="fil2" d="M646.35 2830.28c39.73,-25.42 79.21,-52.95 119.18,-79.93l352.36 -236.98c78.69,-53.02 155.62,-104.55 234.71,-158.11 39.12,-26.5 78.13,-52.18 117.65,-78.86 20.87,-14.09 107.26,-64.48 110.08,-86.48 2.05,-16.1 -14.83,-48.6 -54.82,-21.44l-878.58 590.7 -0.8 -197.89c0,-32.21 6.58,-126.42 -10.06,-139.92 -8.3,-6.75 -23.82,-8.55 -34.93,-1.54 -20.51,12.96 -13.16,58.86 -13.16,86.12l-0.12 294.46 -307.9 205.92c-18.75,12.71 -91.04,54.79 -94.87,73.85 -5.24,26.1 19.33,44.04 43.94,30.26l256.74 -172.2c21.69,-14.7 83.78,-58.21 102.18,-67.49 2.34,613.31 0.03,1227.11 0.03,1840.48l0 1607.6c0,23.44 -5.53,152.33 6.16,167.6 7.52,9.84 22.92,15.8 37.84,7.15 21.29,-12.34 14.15,-62.88 14.15,-102.8l0 -3101.77c0,-150.99 -4.4,-308.57 0.22,-458.73z"/>
  <path class="fil2" d="M3797.08 4335.61c5.5,-10.88 15.51,-16.91 24.61,-28.64 6.55,-8.44 16.05,-23.43 21.1,-34.35 10.42,-22.58 21.83,-63.95 15.18,-92.27 1.21,-20.18 -9.01,-47.92 -16.78,-63.75 -31.9,-65.06 -80.58,-84.6 -147,-110.42 -122.26,-47.52 -246.43,-100.94 -367.23,-147.42 -40.37,-15.53 -82.29,-34.76 -122.72,-48.88 -105.57,-36.86 -196.35,19.18 -229.28,90.18 -40.68,87.68 -9.55,188.66 74.35,236.4 31.09,17.7 85.26,35.99 121.04,50.45 40.87,16.51 81.18,32.52 122.39,49.19 82.56,33.4 163.05,65.78 244.51,98.56 67.07,26.99 131.2,60.95 204.68,31.02 34.02,-13.86 43.62,-25.82 55.15,-30.07z"/>
  <path class="fil3" d="M1935.48 2136.12c35.04,-21.31 67.51,-43.97 102.01,-67.2 34.45,-23.2 68.94,-45.78 103.28,-68.18 70.49,-45.98 135.17,-90.46 206.55,-136.22 -3.31,-4.56 -3.54,-7.66 -2.58,-16.88l131.62 -853.29c5.73,-37.46 44.85,-275.05 43.26,-290.8l-437.01 1072.96c-8.54,20.88 -140.07,349.62 -147.13,359.61zm-308.77 749.31c7.84,-2.73 1.48,-1.26 3.75,2.36l-177.81 436.37c16.92,-3.53 324.64,-167.55 355.71,-183.83 19.15,-10.03 107.45,-59 120.29,-61.32l-305.69 1138.49c19.58,-3.32 89.61,-40.83 110.29,-51.18l211.69 -103.69c18.19,-8.86 36.12,-17.69 53.82,-26.45 16.29,-8.06 40.1,-21.62 56.81,-26.36l-261.73 1610.77c44.04,-106.85 91.48,-217.52 135.4,-325.66 44.55,-109.7 89.91,-218.49 134.37,-327.69 89.13,-218.92 179.35,-438.91 269.56,-657.34l470.77 -1148.11c8.63,-21.11 65.02,-154.16 66.33,-165.56l-494.85 233 317.53 -1048.13 -267.81 175.85c-88.65,61.14 -176.59,117.27 -266.54,176.24l-531.89 352.24z"/>
  <path class="fil1" d="M3797.08 4335.61l138.3 56.64 0.22 609.47c7.02,-6.54 23.2,-33.71 29.81,-44.68 9.69,-16.07 19.52,-31.68 30.07,-47.41 10.27,-15.32 20.74,-32.23 29.99,-47.54l60.21 -94.72c16.02,-24.1 18.27,-23.48 18.15,-58.9l-0.01 -307.14c0,-128.08 -24,-131.88 -133.17,-176.34 -35.31,-14.38 -77.46,-33.8 -112.68,-44.64 6.65,28.32 -4.76,69.69 -15.18,92.27 -5.05,10.92 -14.55,25.91 -21.1,34.35 -9.1,11.73 -19.11,17.76 -24.61,28.64z"/>
 </g>
</svg>
