<?xml version="1.0" encoding="UTF-8"?>
<!DOCTYPE svg PUBLIC "-//W3C//DTD SVG 1.1//EN" "http://www.w3.org/Graphics/SVG/1.1/DTD/svg11.dtd">
<!-- Creator: CorelDRAW -->
<svg xmlns="http://www.w3.org/2000/svg" xml:space="preserve" width="169.333mm" height="78.011mm" version="1.1" style="shape-rendering:geometricPrecision; text-rendering:geometricPrecision; image-rendering:optimizeQuality; fill-rule:evenodd; clip-rule:evenodd"
viewBox="0 0 16933.32 7801.1"
 xmlns:xlink="http://www.w3.org/1999/xlink"
 xmlns:xodm="http://www.corel.com/coreldraw/odm/2003">
 <defs>
  <style type="text/css">
   <![CDATA[
    .fil2 {fill:white}
    .fil1 {fill:white}
    .fil4 {fill:white;fill-rule:nonzero}
    .fil3 {fill:url(#id0)}
    .fil0 {fill:url(#id1)}
    .fil5 {fill:url(#id2)}
   ]]>
  </style>
  <linearGradient id="id0" gradientUnits="userSpaceOnUse" x1="2615.01" y1="5785.04" x2="2615.01" y2="602.19">
   <stop offset="0" style="stop-opacity:1; stop-color:#F4C118"/>
   <stop offset="1" style="stop-opacity:1; stop-color:#F7FFB2"/>
  </linearGradient>
  <linearGradient id="id1" gradientUnits="userSpaceOnUse" x1="4220.74" y1="6384.86" x2="4220.74" y2="894.91">
   <stop offset="0" style="stop-opacity:1; stop-color:#DB5000"/>
   <stop offset="1" style="stop-opacity:1; stop-color:#E86C26"/>
  </linearGradient>
  <linearGradient id="id2" gradientUnits="userSpaceOnUse" xlink:href="#id1" x1="12237.68" y1="4677.33" x2="12237.68" y2="1682.8">
  </linearGradient>
 </defs>
 <g id="Camada_x0020_1">
  <metadata id="CorelCorpID_0Corel-Layer"/>
  <path class="fil0" d="M2810.93 1825.93c-75.25,48.22 -143.43,95.12 -217.73,143.58 -36.2,23.61 -72.54,47.42 -108.86,71.87 -36.36,24.48 -70.59,48.36 -107.52,70.83 -43.82,25.21 -131.05,87.28 -182.45,120.36l-365.43 241.28c-181.97,120.05 -362.14,236.83 -544.27,359.85 -59.24,40.01 -77.23,37.52 -76.89,73.61 0.47,50.52 0.06,101.24 0.06,151.79l0.01 2417.82c0,97.23 -3.98,203.09 0.35,299.26l240.65 4.36c22.93,0.57 36.29,-2.71 58.27,-2.61 20.43,0.1 40.87,0.05 61.3,0.04l117.52 2.28 0.52 -2636.57c13.16,-11.69 27.56,-19.68 44.11,-30.27 14.41,-9.21 30.97,-21.05 45.4,-30.56l182.91 -120.42c32.76,-20.68 63.48,-43.11 92.48,-60.4l560.63 -371.29c94.82,-62.15 187.51,-121.32 280.96,-185.76l282.28 -185.36c37.23,-27.47 88.38,-60.04 130.61,-87.19l916.56 -603.41c5.42,0.13 144.66,94.37 160.78,105.3 180.38,122.31 375.81,245.08 554.88,366.67l394.93 261.18c266.55,172.67 527.63,351.42 791.72,523.72 6.12,4 627.85,411.89 630.64,417.79 3.27,51.96 0.56,113.28 0.49,166.24 -0.08,54.44 0.12,108.88 -0.03,163.33l0.05 825.38c0,31.22 -0.31,48.92 4.56,78.53 15.15,92.06 -1.83,97.05 -4.48,151.73 -1.27,26.15 -0.05,55.32 -0.08,81.81l-0.06 822.47c-0.02,59.55 3.83,288.03 -0.69,327.99 -22.08,6.13 -1253.71,1.93 -1272.8,1.92 -425.21,-0.3 -850.44,-0.15 -1275.67,0.03 -4.6,-53.27 3.74,-73.64 -15.3,-123.76 -13.44,-35.4 -35.2,-64.66 -56.31,-83.78 -62.56,-56.66 -112.16,-58.24 -215.9,-61.11 -63.34,-1.75 -519.17,-20.2 -540.77,-13.1l-3.84 136.53c-15.3,6.03 -260.02,-4.03 -297.27,-5.64 -48.26,-2.09 -97.97,-3.27 -146.84,-4.39 -22.98,-0.53 -51.33,-5.14 -70.68,5.4 -42.33,23.08 -38.08,79 -0.69,98.44 22.8,11.86 183.34,10.76 216.54,12.03 97.35,3.72 196.68,2.97 293.98,8.44 5.03,24.38 -2.23,158.74 -3.61,193.21 -2.5,62.19 -3.5,126.02 -5.85,188.33 -98.29,0.44 -200.85,-6.13 -298.36,-8.71 -50.11,-1.33 -99.07,-2.89 -148.83,-4.27 -29.74,-0.83 -98.54,-8.66 -97.34,55.76 1.15,61.96 67.36,54.89 97.32,55.97 47.73,1.72 97.77,2.89 145.76,4.22 98.45,2.72 197.69,4.22 296.45,8.34 7.84,31.03 -8.68,117.3 0.1,142.32 159.12,7.37 320.62,9.18 479.19,13.72 73.6,2.1 163.14,12.83 224.39,-14.81 55.18,-24.9 97.66,-66.02 119.99,-125.3l3054.94 -1.14c3.37,-84.66 0.29,-175.87 0.29,-261.25l0.09 -3071.25c0.36,-30.42 -4.75,-26.22 -24.19,-38.78l-944.61 -624.54c-52.64,-34.13 -103.12,-67.09 -156.21,-103.29 -103.64,-70.67 -209.43,-137.29 -314.3,-207.71 -53.19,-35.72 -104.92,-70.45 -158.17,-104.37 -165.93,-105.71 -1404.95,-933.55 -1414.21,-933.71 -16.78,6.29 -71.97,45.77 -90.66,58.07 -203.67,134.01 -411.65,274.51 -616.67,407.11 -173.55,112.26 -354.33,236.37 -528.53,349.45l-175.61 116.39z"/>
  <path class="fil1" d="M4768.24 4899.44c22.64,10.96 64.52,21.41 89.63,29.5 31.15,10.04 60.33,18.96 90.46,29.04l365.9 118.29c22.68,7.47 171.35,57.6 181.05,57.62 -28.78,3.41 -162.84,-17.9 -201.83,-22.65 -68.05,-8.28 -137.1,-16.72 -205.23,-24.79 -134.85,-15.97 -272.7,-36.32 -407.12,-49.04l-162.46 263.29c-27.12,43.2 -54.67,87.19 -81.32,131.52 -25.43,42.31 -70.93,95.74 -33.16,157.49 34.72,56.77 85.12,50.6 162.39,50.6l1924.86 0c71.57,0 140.28,10.96 177.06,-35.97 38.8,-49.48 33.98,-109.54 -18.34,-149.14 -74.66,-56.5 -170.95,-118.71 -249.44,-176.27 -78.4,-57.5 -174.31,-119.62 -251.87,-176.92l-124.82 -88.05c-43.41,-29.14 -83.25,-60.09 -126.64,-89.18 -77.94,-52.24 -172.19,-121.39 -251.63,-177.1l-374.69 -263.97c-43.86,-30.12 -94.18,-75.03 -138.63,-77.47 -69.6,-3.82 -93.4,50.61 -120.03,93.2 -26,41.58 -241.2,387.24 -244.14,400z"/>
  <path class="fil2" d="M7435.53 6397.73c-57.33,6.18 -148.22,0.78 -209.17,0.79l-2703.56 0c-69.02,0 -138.05,0 -207.07,0 -35,0 -70,0.01 -104.99,0 -30.92,-0.02 -70.39,-5.22 -68.95,32.01 1.33,34.66 43.5,29.3 74.78,29.29l2388.58 0c62.14,0 789.59,-3.56 830.39,0.78 0,47.37 0,94.74 0,142.11 0,37.85 -13.35,110.24 32.5,107.16 21.98,-1.47 28.74,-18.2 28.88,-39.98l-0.09 -210.07 665.72 0.01c30,0.06 62.16,1.11 60.73,-31.78 -1.46,-33.74 -35.11,-29.55 -66.57,-29.53l-659.88 0 0 -3899.4c0,-33.83 10.67,-93.76 -31.16,-92.97 -42.16,0.8 -30.13,65.83 -30.13,98.8l-0.01 3892.78z"/>
  <path class="fil2" d="M1017.99 2843.89c41.88,-26.78 83.5,-55.81 125.63,-84.24l371.41 -249.8c82.94,-55.89 164.03,-110.2 247.39,-166.65 41.24,-27.93 82.36,-55 124.02,-83.12 22,-14.86 113.06,-67.97 116.02,-91.16 2.17,-16.98 -15.62,-51.23 -57.78,-22.6l-926.07 622.63 -0.84 -208.58c0,-33.95 6.93,-133.26 -10.61,-147.5 -8.75,-7.1 -25.11,-9 -36.81,-1.61 -21.63,13.65 -13.88,62.03 -13.88,90.77l-0.13 310.38 -324.54 217.05c-19.77,13.39 -95.97,57.76 -100,77.84 -5.53,27.51 20.37,46.43 46.32,31.9l270.61 -181.51c22.87,-15.49 88.32,-61.36 107.7,-71.14 2.47,646.47 0.04,1293.45 0.04,1939.98l0 1694.51c0,24.7 -5.82,160.56 6.49,176.66 7.93,10.37 24.16,16.65 39.89,7.53 22.44,-13.01 14.92,-66.28 14.92,-108.36l0 -3269.45c0,-159.15 -4.64,-325.25 0.22,-483.53z"/>
  <path class="fil2" d="M4339.05 4430.6c5.8,-11.46 16.35,-17.82 25.95,-30.18 6.9,-8.9 16.92,-24.7 22.23,-36.21 10.99,-23.8 23.01,-67.41 16.01,-97.26 1.27,-21.27 -9.5,-50.51 -17.69,-67.2 -33.63,-68.57 -84.94,-89.17 -154.94,-116.38 -128.88,-50.1 -259.77,-106.4 -387.09,-155.4 -42.55,-16.37 -86.74,-36.64 -129.35,-51.52 -111.29,-38.85 -206.97,20.22 -241.68,95.05 -42.88,92.42 -10.06,198.87 78.37,249.19 32.78,18.65 89.87,37.94 127.59,53.18 43.07,17.4 85.56,34.27 129,51.84 87.02,35.2 171.86,69.34 257.73,103.89 70.7,28.45 138.29,64.24 215.74,32.7 35.87,-14.61 45.98,-27.21 58.13,-31.7z"/>
  <path class="fil3" d="M2376.82 2112.21c36.93,-22.47 71.16,-46.35 107.52,-70.83 36.32,-24.45 72.66,-48.26 108.86,-71.87 74.3,-48.46 142.48,-95.36 217.73,-143.58 -3.5,-4.81 -3.74,-8.08 -2.73,-17.79l138.74 -899.43c6.03,-39.48 47.27,-289.91 45.59,-306.52l-460.63 1130.97c-9,22.01 -147.65,368.52 -155.08,379.05zm-325.46 789.82c8.25,-2.88 1.55,-1.33 3.94,2.49l-187.42 459.95c17.84,-3.71 342.2,-176.61 374.94,-193.76 20.19,-10.58 113.27,-62.19 126.8,-64.64l-322.22 1200.04c20.64,-3.5 94.46,-43.04 116.25,-53.95l223.14 -109.29c19.17,-9.35 38.07,-18.65 56.72,-27.88 17.18,-8.5 42.28,-22.79 59.89,-27.79l-275.88 1697.85c46.42,-112.63 96.42,-229.28 142.71,-343.26 46.96,-115.64 94.78,-230.3 141.64,-345.41 93.95,-230.76 189.05,-462.64 284.13,-692.87l496.23 -1210.19c9.09,-22.24 68.53,-162.49 69.91,-174.5l-521.61 245.6 334.7 -1104.8 -282.28 185.36c-93.45,64.44 -186.14,123.61 -280.96,185.76l-560.63 371.29z"/>
  <path class="fil1" d="M4339.05 4430.6l145.78 59.71 0.23 642.41c7.4,-6.89 24.46,-35.53 31.43,-47.09 10.21,-16.94 20.57,-33.4 31.69,-49.98 10.83,-16.14 21.86,-33.97 31.61,-50.11l63.46 -99.83c16.89,-25.41 19.26,-24.76 19.13,-62.09l0 -323.75c0,-135 -25.3,-139 -140.38,-185.87 -37.21,-15.15 -81.64,-35.62 -118.76,-47.05 7,29.85 -5.02,73.46 -16.01,97.26 -5.31,11.51 -15.33,27.31 -22.23,36.21 -9.6,12.36 -20.15,18.72 -25.95,30.18z"/>
  <path class="fil4" d="M9338.21 5540.31c-6.18,5.16 -17.66,12.12 -34.42,20.89 -16.76,8.77 -37.26,16.5 -61.49,23.21 -24.24,6.7 -51.06,9.79 -80.45,9.28 -44.87,-1.03 -84.96,-9.16 -120.28,-24.37 -35.33,-15.21 -65.24,-35.97 -89.73,-62.27 -24.5,-26.3 -43.19,-56.46 -56.09,-90.5 -12.89,-34.04 -19.33,-70.39 -19.33,-109.07 0,-43.32 6.57,-83.02 19.72,-119.12 13.15,-36.1 31.97,-67.3 56.47,-93.6 24.49,-26.3 53.76,-46.67 87.79,-61.11 34.04,-14.44 71.69,-21.66 112.94,-21.66 38.16,0 71.94,5.16 101.33,15.47 29.4,10.32 53.38,21.41 71.94,33.27l-44.09 105.97c-12.89,-9.8 -30.04,-19.98 -51.44,-30.55 -21.4,-10.58 -46.03,-15.86 -73.87,-15.86 -28.88,0 -55.83,7.99 -80.84,23.98 -25.01,15.98 -45.12,37.51 -60.33,64.59 -15.21,27.07 -22.82,57.88 -22.82,92.43 0,36.62 6.96,68.72 20.88,96.31 13.93,27.59 33.78,49.12 59.57,64.59 25.78,15.47 55.95,23.2 90.5,23.2 30.43,0 56.47,-4.89 78.13,-14.69 21.66,-9.8 38.16,-20.11 49.5,-30.94l46.41 100.55zm77.36 -236.7c0,-39.19 7.47,-76.32 22.43,-111.38 14.95,-35.07 35.71,-66.14 62.27,-93.21 26.56,-27.08 57.37,-48.35 92.43,-63.82 35.07,-15.47 72.72,-23.21 112.94,-23.21 39.71,0 77.1,7.74 112.16,23.21 35.07,15.47 66.14,36.74 93.21,63.82 27.08,27.07 48.22,58.14 63.43,93.21 15.21,35.06 22.82,72.19 22.82,111.38 0,40.23 -7.61,77.87 -22.82,112.94 -15.21,35.07 -36.35,65.88 -63.43,92.44 -27.07,26.55 -58.14,47.31 -93.21,62.27 -35.06,14.95 -72.45,22.43 -112.16,22.43 -40.22,0 -77.87,-7.48 -112.94,-22.43 -35.06,-14.96 -65.87,-35.72 -92.43,-62.27 -26.56,-26.56 -47.32,-57.37 -62.27,-92.44 -14.96,-35.07 -22.43,-72.71 -22.43,-112.94zm116.03 0c0,33.52 7.86,64.08 23.59,91.67 15.73,27.59 37,49.5 63.81,65.75 26.82,16.24 56.99,24.36 90.51,24.36 32.49,0 61.75,-8.12 87.79,-24.36 26.05,-16.25 46.54,-38.16 61.5,-65.75 14.95,-27.59 22.43,-58.15 22.43,-91.67 0,-34.55 -7.73,-65.62 -23.2,-93.21 -15.47,-27.59 -36.36,-49.5 -62.66,-65.75 -26.3,-16.24 -55.95,-24.36 -88.96,-24.36 -33,0 -62.65,8.12 -88.95,24.36 -26.3,16.25 -47.19,38.16 -62.66,65.75 -15.47,27.59 -23.2,58.66 -23.2,93.21zm1087.58 307.1l-431.63 -389.86 33.26 18.56 2.32 348.09 -113.7 0 0 -591.75 4.64 0 422.34 388.31 -24.75 -10.83 -2.32 -355.05 112.94 0 0 592.53 -3.1 0zm454.06 -454.84c-21.66,-11.86 -43.7,-21.66 -66.13,-29.39 -22.44,-7.74 -43.45,-11.61 -63.05,-11.61 -24.23,0 -43.31,4.9 -57.24,14.7 -13.92,9.8 -20.88,24.5 -20.88,44.09 0,13.41 5.28,25.4 15.85,35.97 10.58,10.57 24.24,19.98 41,28.23 16.76,8.26 34.17,15.73 52.21,22.44 22.18,8.25 43.58,18.69 64.21,31.32 20.62,12.64 37.64,29.91 51.05,51.83 13.41,21.92 20.11,50.93 20.11,87.02 0,28.88 -7.48,55.7 -22.43,80.45 -14.96,24.75 -36.87,44.74 -65.75,59.95 -28.88,15.21 -64.46,22.82 -106.75,22.82 -32.49,0 -65.62,-4.9 -99.4,-14.7 -33.77,-9.8 -65.62,-25.27 -95.53,-46.41l49.51 -87.41c19.59,14.44 42.03,26.3 67.3,35.58 25.26,9.29 47.95,13.93 68.07,13.93 13.4,0 26.94,-1.94 40.61,-5.81 13.66,-3.86 25.01,-10.44 34.03,-19.72 9.03,-9.28 13.54,-22.17 13.54,-38.68 0,-11.34 -3.74,-21.66 -11.22,-30.94 -7.47,-9.28 -17.53,-17.79 -30.16,-25.52 -12.64,-7.74 -26.43,-14.44 -41.39,-20.12 -17.53,-6.7 -35.58,-14.44 -54.15,-23.2 -18.56,-8.77 -35.96,-19.47 -52.21,-32.1 -16.24,-12.64 -29.39,-28.37 -39.45,-47.19 -10.05,-18.82 -15.08,-41.9 -15.08,-69.23 0,-33 7.35,-61.62 22.04,-85.86 14.7,-24.24 35.46,-43.45 62.27,-57.63 26.82,-14.18 57.76,-22.05 92.83,-23.59 45.89,0 83.15,5.41 111.77,16.24 28.62,10.83 54.28,23.72 76.97,38.68l-42.55 85.86zm108.3 -137.69l383.67 0 0 108.3 -138.46 0 0 461.02 -112.16 0 0 -461.02 -133.05 0 0 -108.3zm664.46 0c47.96,0 88.44,7.87 121.45,23.59 33,15.73 58.14,37.91 75.42,66.53 17.27,28.62 25.91,62.53 25.91,101.72 0,23.2 -3.48,46.41 -10.44,69.62 -6.97,23.2 -18.31,44.34 -34.04,63.42 -15.73,19.08 -36.48,34.43 -62.27,46.03 -25.78,11.6 -57.75,17.4 -95.92,17.4l-80.44 0 0 181.01 -112.16 0 0 -569.32 172.49 0zm19.34 280.02c22.69,0 40.35,-4.77 52.99,-14.31 12.63,-9.54 21.53,-20.89 26.68,-34.04 5.16,-13.15 7.74,-25.14 7.74,-35.96 0,-6.19 -0.9,-14.06 -2.71,-23.6 -1.8,-9.54 -5.54,-19.21 -11.21,-29.01 -5.68,-9.79 -14.31,-18.04 -25.92,-24.75 -11.6,-6.7 -27.2,-10.05 -46.8,-10.05l-80.44 0 0 171.72 79.67 0zm105.2 69.62l140.78 219.68 -130.72 0 -143.88 -216.59 133.82 -3.09zm334.16 9.28c0,18.05 5.42,35.32 16.25,51.83 10.83,16.5 25.14,29.91 42.93,40.22 17.79,10.31 37.26,15.47 58.4,15.47 23.21,0 43.83,-5.16 61.88,-15.47 18.05,-10.31 32.36,-23.72 42.93,-40.22 10.58,-16.51 15.86,-33.78 15.86,-51.83l0 -358.92 110.62 0 0 361.24c0,41.77 -10.32,78.77 -30.94,111 -20.63,32.23 -48.48,57.5 -83.55,75.81 -35.06,18.3 -74,27.46 -116.8,27.46l0 0c-42.29,0 -80.83,-9.16 -115.64,-27.46 -34.81,-18.31 -62.53,-43.58 -83.16,-75.81 -20.62,-32.23 -30.94,-69.23 -30.94,-111l0 -361.24 112.16 0 0 358.92zm911.22 163.21c-6.18,5.16 -17.66,12.12 -34.42,20.89 -16.76,8.77 -37.26,16.5 -61.49,23.21 -24.24,6.7 -51.06,9.79 -80.45,9.28 -44.87,-1.03 -84.96,-9.16 -120.28,-24.37 -35.33,-15.21 -65.24,-35.97 -89.73,-62.27 -24.5,-26.3 -43.19,-56.46 -56.09,-90.5 -12.89,-34.04 -19.33,-70.39 -19.33,-109.07 0,-43.32 6.57,-83.02 19.72,-119.12 13.15,-36.1 31.97,-67.3 56.47,-93.6 24.49,-26.3 53.76,-46.67 87.79,-61.11 34.04,-14.44 71.69,-21.66 112.94,-21.66 38.16,0 71.94,5.16 101.33,15.47 29.4,10.32 53.38,21.41 71.94,33.27l-44.09 105.97c-12.89,-9.8 -30.04,-19.98 -51.44,-30.55 -21.4,-10.58 -46.03,-15.86 -73.87,-15.86 -28.88,0 -55.83,7.99 -80.84,23.98 -25.01,15.98 -45.12,37.51 -60.33,64.59 -15.21,27.07 -22.82,57.88 -22.82,92.43 0,36.62 6.96,68.72 20.88,96.31 13.93,27.59 33.78,49.12 59.57,64.59 25.78,15.47 55.95,23.2 90.5,23.2 30.43,0 56.47,-4.89 78.13,-14.69 21.66,-9.8 38.16,-20.11 49.5,-30.94l46.41 100.55zm73.49 -522.13l383.67 0 0 108.3 -138.46 0 0 461.02 -112.16 0 0 -461.02 -133.05 0 0 -108.3zm491.97 0l112.16 0 0 569.32 -112.16 0 0 -569.32zm224.32 285.43c0,-39.19 7.47,-76.32 22.43,-111.38 14.95,-35.07 35.71,-66.14 62.27,-93.21 26.56,-27.08 57.37,-48.35 92.43,-63.82 35.07,-15.47 72.72,-23.21 112.94,-23.21 39.71,0 77.1,7.74 112.16,23.21 35.07,15.47 66.14,36.74 93.21,63.82 27.08,27.07 48.22,58.14 63.43,93.21 15.21,35.06 22.82,72.19 22.82,111.38 0,40.23 -7.61,77.87 -22.82,112.94 -15.21,35.07 -36.35,65.88 -63.43,92.44 -27.07,26.55 -58.14,47.31 -93.21,62.27 -35.06,14.95 -72.45,22.43 -112.16,22.43 -40.22,0 -77.87,-7.48 -112.94,-22.43 -35.06,-14.96 -65.87,-35.72 -92.43,-62.27 -26.56,-26.56 -47.32,-57.37 -62.27,-92.44 -14.96,-35.07 -22.43,-72.71 -22.43,-112.94zm116.03 0c0,33.52 7.86,64.08 23.59,91.67 15.73,27.59 37,49.5 63.81,65.75 26.82,16.24 56.99,24.36 90.51,24.36 32.49,0 61.75,-8.12 87.79,-24.36 26.05,-16.25 46.54,-38.16 61.5,-65.75 14.95,-27.59 22.43,-58.15 22.43,-91.67 0,-34.55 -7.73,-65.62 -23.2,-93.21 -15.47,-27.59 -36.36,-49.5 -62.66,-65.75 -26.3,-16.24 -55.95,-24.36 -88.96,-24.36 -33,0 -62.65,8.12 -88.95,24.36 -26.3,16.25 -47.19,38.16 -62.66,65.75 -15.47,27.59 -23.2,58.66 -23.2,93.21zm1087.58 307.1l-431.63 -389.86 33.26 18.56 2.32 348.09 -113.7 0 0 -591.75 4.64 0 422.34 388.31 -24.75 -10.83 -2.32 -355.05 112.94 0 0 592.53 -3.1 0zm730.21 -23.21c-7.22,0 -17.92,0 -32.1,0 -14.18,0 -28.75,0 -43.7,0 -14.96,0 -27.72,0 -38.29,0 -10.57,0 -15.86,0 -15.86,0l-250.62 -337.26c-5.16,-7.22 -11.61,-17.15 -19.34,-29.78 -7.74,-12.63 -14.44,-26.82 -20.11,-42.54 -5.68,-15.73 -8.51,-31.59 -8.51,-47.58 0,-20.62 5.28,-41.12 15.86,-61.49 10.57,-20.37 26.81,-37.39 48.73,-51.05 21.91,-13.67 49.63,-20.5 83.15,-20.5 36.62,0 68.85,7.47 96.69,22.43 27.85,14.95 50.03,33 66.53,54.15l-56.47 75.03c-15.99,-17.53 -31.33,-31.46 -46.03,-41.77 -14.69,-10.32 -29,-15.47 -42.93,-15.47 -17.53,0 -30.16,5.15 -37.9,15.47 -7.73,10.31 -11.6,21.66 -11.6,34.03 0,7.22 1.93,15.09 5.8,23.6 3.87,8.5 7.86,16.24 11.99,23.2 4.12,6.96 6.96,11.73 8.51,14.31l286.2 385.22zm-313.28 -259.13c-16.5,0 -31.58,4.12 -45.25,12.37 -13.66,8.25 -24.36,19.08 -32.1,32.49 -7.73,13.41 -11.6,27.59 -11.6,42.55 0,15.98 3.99,30.04 11.99,42.15 7.99,12.12 18.95,21.53 32.87,28.24 13.93,6.7 29.14,10.05 45.64,10.05 25.27,0 44.48,-5.28 57.63,-15.85 13.15,-10.58 23.33,-23.34 30.55,-38.29l71.94 59.56c-13.92,26.3 -35.19,48.73 -63.81,67.3 -28.62,18.56 -65.88,27.84 -111.78,27.84 -35.58,0 -67.81,-7.48 -96.69,-22.43 -28.88,-14.95 -51.83,-35.58 -68.84,-61.88 -17.02,-26.3 -25.53,-56.47 -25.53,-90.51 0,-25.78 5.8,-49.5 17.4,-71.16 11.61,-21.66 27.21,-40.48 46.8,-56.47 19.6,-15.98 41.51,-28.75 65.75,-38.29 24.24,-9.54 48.99,-14.57 74.26,-15.08l0.77 87.41zm168.63 -87.41l102.11 0 -95.92 241.34 -81.22 -47.96 75.03 -193.38zm-6711.15 668.32c47.96,0 88.44,7.87 121.45,23.59 33,15.73 58.14,37.91 75.42,66.53 17.27,28.62 25.91,62.53 25.91,101.72 0,23.2 -3.48,46.41 -10.44,69.62 -6.97,23.2 -18.31,44.34 -34.04,63.42 -15.73,19.08 -36.48,34.43 -62.27,46.03 -25.78,11.6 -57.75,17.4 -95.92,17.4l-80.44 0 0 181.01 -112.16 0 0 -569.32 172.49 0zm19.34 280.02c22.69,0 40.35,-4.77 52.99,-14.31 12.63,-9.54 21.53,-20.89 26.68,-34.04 5.16,-13.15 7.74,-25.14 7.74,-35.96 0,-6.19 -0.9,-14.06 -2.71,-23.6 -1.8,-9.54 -5.54,-19.21 -11.21,-29.01 -5.68,-9.79 -14.31,-18.04 -25.92,-24.75 -11.6,-6.7 -27.2,-10.05 -46.8,-10.05l-80.44 0 0 171.72 79.67 0zm105.2 69.62l140.78 219.68 -130.72 0 -143.88 -216.59 133.82 -3.09zm233.61 -349.64l388.31 0 0 108.3 -276.15 0 0 121.44 244.43 0 0 108.29 -244.43 0 0 123 286.98 0 0 108.29 -399.14 0 0 -569.32zm1024.92 592.53l-431.63 -389.86 33.26 18.56 2.32 348.09 -113.7 0 0 -591.75 4.64 0 422.34 388.31 -24.75 -10.83 -2.32 -355.05 112.94 0 0 592.53 -3.1 0zm115.26 -307.1c0,-39.19 7.47,-76.32 22.43,-111.38 14.95,-35.07 35.71,-66.14 62.27,-93.21 26.56,-27.08 57.37,-48.35 92.43,-63.82 35.07,-15.47 72.72,-23.21 112.94,-23.21 39.71,0 77.1,7.74 112.16,23.21 35.07,15.47 66.14,36.74 93.21,63.82 27.08,27.07 48.22,58.14 63.43,93.21 15.21,35.06 22.82,72.19 22.82,111.38 0,40.23 -7.61,77.87 -22.82,112.94 -15.21,35.07 -36.35,65.88 -63.43,92.44 -27.07,26.55 -58.14,47.31 -93.21,62.27 -35.06,14.95 -72.45,22.43 -112.16,22.43 -40.22,0 -77.87,-7.48 -112.94,-22.43 -35.06,-14.96 -65.87,-35.72 -92.43,-62.27 -26.56,-26.56 -47.32,-57.37 -62.27,-92.44 -14.96,-35.07 -22.43,-72.71 -22.43,-112.94zm116.03 0c0,33.52 7.86,64.08 23.59,91.67 15.73,27.59 37,49.5 63.81,65.75 26.82,16.24 56.99,24.36 90.51,24.36 32.49,0 61.75,-8.12 87.79,-24.36 26.05,-16.25 46.54,-38.16 61.5,-65.75 14.95,-27.59 22.43,-58.15 22.43,-91.67 0,-34.55 -7.73,-65.62 -23.2,-93.21 -15.47,-27.59 -36.36,-49.5 -62.66,-65.75 -26.3,-16.24 -55.95,-24.36 -88.96,-24.36 -33,0 -62.65,8.12 -88.95,24.36 -26.3,16.25 -47.19,38.16 -62.66,65.75 -15.47,27.59 -23.2,58.66 -23.2,93.21zm625.01 -285.43l166.31 409.97 -64.98 -13.15 150.84 -396.82 133.05 0 -259.91 595.62 -259.91 -595.62 134.6 0zm341.9 569.32l256.81 -591.75 6.19 0 256.81 591.75 -129.95 0 -163.99 -416.16 81.22 -55.69 -196.47 471.85 -110.62 0zm175.59 -205.76l170.95 0 39.45 94.37 -245.21 0 34.81 -94.37zm341.91 -363.56l383.67 0 0 108.3 -138.46 0 0 461.02 -112.16 0 0 -461.02 -133.05 0 0 -108.3zm491.97 0l112.16 0 0 569.32 -112.16 0 0 -569.32zm224.32 285.43c0,-39.19 7.47,-76.32 22.43,-111.38 14.95,-35.07 35.71,-66.14 62.27,-93.21 26.56,-27.08 57.37,-48.35 92.43,-63.82 35.07,-15.47 72.72,-23.21 112.94,-23.21 39.71,0 77.1,7.74 112.16,23.21 35.07,15.47 66.14,36.74 93.21,63.82 27.08,27.07 48.22,58.14 63.43,93.21 15.21,35.06 22.82,72.19 22.82,111.38 0,40.23 -7.61,77.87 -22.82,112.94 -15.21,35.07 -36.35,65.88 -63.43,92.44 -27.07,26.55 -58.14,47.31 -93.21,62.27 -35.06,14.95 -72.45,22.43 -112.16,22.43 -40.22,0 -77.87,-7.48 -112.94,-22.43 -35.06,-14.96 -65.87,-35.72 -92.43,-62.27 -26.56,-26.56 -47.32,-57.37 -62.27,-92.44 -14.96,-35.07 -22.43,-72.71 -22.43,-112.94zm116.03 0c0,33.52 7.86,64.08 23.59,91.67 15.73,27.59 37,49.5 63.81,65.75 26.82,16.24 56.99,24.36 90.51,24.36 32.49,0 61.75,-8.12 87.79,-24.36 26.05,-16.25 46.54,-38.16 61.5,-65.75 14.95,-27.59 22.43,-58.15 22.43,-91.67 0,-34.55 -7.73,-65.62 -23.2,-93.21 -15.47,-27.59 -36.36,-49.5 -62.66,-65.75 -26.3,-16.24 -55.95,-24.36 -88.96,-24.36 -33,0 -62.65,8.12 -88.95,24.36 -26.3,16.25 -47.19,38.16 -62.66,65.75 -15.47,27.59 -23.2,58.66 -23.2,93.21zm1087.58 307.1l-431.63 -389.86 33.26 18.56 2.32 348.09 -113.7 0 0 -591.75 4.64 0 422.34 388.31 -24.75 -10.83 -2.32 -355.05 112.94 0 0 592.53 -3.1 0z"/>
  <path class="fil5" d="M10781.02 4569.43c4.85,-38.67 8.81,-78.41 13.27,-117.43l295.4 -2612.57c3.94,-33.84 15.19,-92.35 1.67,-120.28 -16.91,-34.91 -50.08,-34.75 -96.88,-34.73 -87.18,0.04 -174.36,-0.01 -261.54,0 -120.86,0.02 -133.45,2.42 -143.96,121.28l-106.53 1215.05c-6.73,81.7 -33.5,430.59 -43.1,484.06l-16.02 -0.07c-8.4,-18.58 -203.51,-966.7 -207.59,-985.97l-155.33 -742.69c-22.62,-113.16 -70.56,-91.66 -205.03,-91.66 -144.15,0 -170.73,-17.89 -196.82,103.38 -118.56,551.15 -230.56,1112.76 -350.57,1662.89 -9.53,43.7 -2.23,55.32 -29.01,53.35 -11.94,-73.64 -14.29,-168.26 -21,-244.76 -42.69,-486.45 -79.98,-977.11 -122.08,-1463.98 -10.14,-117.27 -36.38,-110.88 -151.19,-110.88 -384.97,0 -366.56,-26.91 -348.03,162.42 15.46,158.03 33.9,317.17 51.26,475.46l244.55 2264.59c4.52,43.74 11.98,71.62 47.33,83.53 27.35,9.21 321.32,4.81 390.34,4.81 45.83,0.01 72.65,-9.58 89.15,-41.06 16.4,-31.27 42.5,-166.8 52.79,-212.05l248.02 -1069.89c26.11,-112.25 81.14,-329.26 99.07,-428.77 12.71,21.19 43.03,175.27 51.7,213.37l297.65 1292.74c45.07,192.9 29.02,245.9 149.28,245.64 75.6,-0.17 352.18,7.91 385.01,-10.06 33.09,-18.11 32.6,-51.21 38.19,-95.72zm4078.4 -1390.27l-0.2 -1000.69c80.47,-2.76 164.4,-0.28 244.28,-0.27 76.88,0 162.06,-6.5 201.13,42.34 42.72,53.41 32.91,131.6 32.91,211.48l0 488.69c0,79.49 10.38,158.85 -31.24,213.15 -37.35,48.71 -121.76,45.72 -199.36,45.72 -80.15,0 -168.37,3.49 -247.52,-0.42zm0.07 494.4c179.21,-10.28 376.05,12.76 552.53,-7.1 168.5,-18.96 292.42,-102.6 354.61,-206.49 88.26,-147.44 79.41,-287.82 79.41,-480.75 0,-186.99 0,-373.98 0,-560.96 0,-182.12 11.11,-349.81 -64.39,-495.74 -60.96,-117.85 -167.64,-195.69 -334.01,-226.76 -83.43,-15.57 -183.57,-11.34 -271.87,-11.34l-702.04 0c-45.21,0 -94.18,-6.85 -113.79,24.7 -18.27,29.4 -9.18,221.28 -9.18,272.07l0 1961.65c0,61.27 -5.6,668.82 4.41,696.65 14.94,41.51 57.5,35.7 104.79,35.69 92.92,0 185.84,0 278.75,0 132.92,0 120.56,-1.33 120.56,-161.05 0,-92.92 0,-185.84 0,-278.77 0,-185.68 -4.43,-376.8 0.22,-561.8zm-2510.74 -1748.89c-43.51,-193.32 -27.93,-240.36 -149.78,-240.25l-385.44 0c-106.25,0 -154.48,-16.36 -154.32,100.6l0.01 2705.01c0,85.31 -20.54,179.82 68.27,184.88 50.95,2.9 362.04,2.06 380.13,-4.29 37.46,-13.16 45.01,-40.38 45.11,-84.14l-0.04 -640.2c0,-77.6 -4.41,-977.21 1.03,-1028.25l24.38 0.25 363.2 1653.01c25.47,119.91 54.8,103.89 180.76,103.89 125.76,0 157.08,16.29 183.17,-105.3l258.25 -1179.99c31.47,-144.47 69.08,-333.96 103.47,-471.57l25.41 0.22c5.78,77.94 0.64,176.64 0.64,256.84l0 1290.56c0,43.31 -0.96,87.74 0.06,130.9 1.02,43.22 15.41,66.84 51.29,75.74 35.74,8.87 202.9,2.6 251.82,2.6 39.49,0 92.4,2.99 130.29,-0.55 38.69,-3.61 58.92,-25.43 63.52,-62.1 4.35,-34.65 0.94,-92.31 0.94,-129.38l0.03 -2701.58c0.17,-114.88 -58.13,-97.15 -160.36,-97.15l-388.88 -0.01c-47.43,-0.07 -72.52,6.85 -90.55,37.63 -16.04,27.37 -40.96,162.44 -50.46,204.2 -63.63,279.61 -124.43,558.84 -187.74,841.62l-188.66 840.57 -375.55 -1683.76z"/>
 </g>
</svg>
