<?xml version="1.0" encoding="UTF-8"?>
<!DOCTYPE svg PUBLIC "-//W3C//DTD SVG 1.1//EN" "http://www.w3.org/Graphics/SVG/1.1/DTD/svg11.dtd">
<!-- Creator: CorelDRAW -->
<svg xmlns="http://www.w3.org/2000/svg" xml:space="preserve" width="210mm" height="297mm" version="1.1" style="shape-rendering:geometricPrecision; text-rendering:geometricPrecision; image-rendering:optimizeQuality; fill-rule:evenodd; clip-rule:evenodd"
viewBox="0 0 21000 29700"
 xmlns:xlink="http://www.w3.org/1999/xlink"
 xmlns:xodm="http://www.corel.com/coreldraw/odm/2003">
 <defs>
  <style type="text/css">
   <![CDATA[
    .fil0 {fill:white}
    .fil1 {fill:url(#id2)}
    .fil2 {fill:url(#id3);fill-rule:nonzero}
   ]]>
  </style>
    <clipPath id="id0">
     <path d="M2841.01 185.1l15699.15 0 0.03 18444.22 -15699.15 0 -0.03 -18444.22z"/>
    </clipPath>
    <clipPath id="id1">
     <path d="M2216.01 18440.46l16688.02 0 0 10359.63 -16688.02 0 0 -10359.63z"/>
    </clipPath>
  <linearGradient id="id2" gradientUnits="userSpaceOnUse" x1="10661.19" y1="937.07" x2="10690.58" y2="17399.93">
   <stop offset="0" style="stop-opacity:1; stop-color:#F17722"/>
   <stop offset="1" style="stop-opacity:1; stop-color:#B54B00"/>
  </linearGradient>
  <linearGradient id="id3" gradientUnits="userSpaceOnUse" x1="10560.02" y1="27909.67" x2="10560.02" y2="18995.44">
   <stop offset="0" style="stop-opacity:1; stop-color:#B54B00"/>
   <stop offset="1" style="stop-opacity:1; stop-color:#F17722"/>
  </linearGradient>
 </defs>
 <g id="Camada_x0020_1">
  <metadata id="CorelCorpID_0Corel-Layer"/>
  <polygon class="fil0" points="10690.58,1833.08 13863.24,3664.81 17035.89,5496.55 17035.89,9160.01 17035.89,12823.47 13863.24,14655.21 10690.58,16486.94 7517.93,14655.21 4345.28,12823.47 4345.28,9160.01 4345.28,5496.55 7517.93,3664.81 "/>
  <g id="_1541852783120">
   <g style="clip-path:url(#id0)">
    <image x="2841.01" y="185.1" width="15699.18" height="18444.22" xlink:href="WMPlogo_Images\WMPlogo_ImgID1.png"/>
   </g>
  </g>
  <path class="fil1" d="M7122.59 15339.95l3567.99 2059.98 84.04 -48.52c1110.26,-2481.5 2221.67,-4962.49 3332.05,-7443.95 -274.11,0 -548.24,0 -822.36,0 -3.23,8.47 -6.6,17.22 -10.22,26.36 -11.08,27.86 -24.39,59.44 -37.11,89.42 -12.74,29.98 -24.88,58.37 -40.47,83.64 -15.58,25.31 -34.58,47.53 -70.29,75.52 -35.69,28.01 -88.08,61.78 -264.9,82.13 -176.82,20.34 -478.12,27.28 -779.39,34.2 -1.04,37.89 -2.1,75.77 -3.12,113.66 -102.96,2.59 -205.91,5.22 -308.89,7.81 -0.46,-171.98 -0.91,-343.95 -1.38,-515.94l0 117.36 -630.35 0 0 -233.28 630.04 0c-0.35,-132.86 -0.71,-265.71 -1.05,-398.57 0.33,-132.85 0.65,-265.71 0.99,-398.57l-630.03 0 0 -233.28 630.36 0 0 106.73c0.43,-168.42 0.85,-336.87 1.27,-505.3 102.97,2.62 205.93,5.21 308.9,7.79 1.04,37.86 2.06,75.75 3.12,113.63 301.28,6.89 602.57,13.77 779.41,34.13 176.83,20.3 229.22,54.07 264.9,82.07 35.72,27.96 54.72,50.2 70.31,75.49 15.58,25.27 27.75,53.67 40.47,83.65 12.74,29.97 26.04,61.55 37.13,89.41 3.62,9.15 7.01,17.9 10.23,26.38 540.45,0 1080.9,0 1621.36,0l798.87 0 -326.23 729.23c-1024.14,2289.24 -2049.32,4578.02 -3073.86,6867.07l1954.2 -1128.25 3567.99 -2059.99 0 -4119.95 0 -4119.95 -3567.99 -2059.99 -3568 -2059.97 -29.39 16.97c-1134.12,2644.54 -2264.21,5290.83 -3399.61,7934.83 402.73,0 805.46,0 1208.19,0 3.22,-8.48 6.6,-17.22 10.23,-26.37 11.05,-27.86 24.36,-59.45 37.09,-89.42 12.73,-29.98 24.89,-58.37 40.46,-83.65 15.6,-25.31 34.61,-47.53 70.3,-75.52 35.7,-28 88.08,-61.77 264.9,-82.12 176.82,-20.35 478.13,-27.28 779.4,-34.22 1.04,-37.88 2.07,-75.75 3.11,-113.64 102.96,-2.59 205.92,-5.21 308.89,-7.81 0.93,343.47 1.83,686.96 2.76,1030.42 -0.88,343.46 -1.74,686.94 -2.6,1030.41 -102.98,-2.59 -205.94,-5.19 -308.89,-7.76 -1.06,-37.89 -2.09,-75.77 -3.13,-113.64 -301.29,-6.89 -602.58,-13.78 -779.41,-34.11 -176.82,-20.32 -229.21,-54.08 -264.9,-82.07 -35.71,-28 -54.73,-50.22 -70.32,-75.51 -15.58,-25.3 -27.73,-53.67 -40.48,-83.65 -12.72,-29.96 -26.04,-61.56 -37.1,-89.41 -3.62,-9.15 -7.01,-17.9 -10.23,-26.37 -664.77,0 -1329.51,0 -1994.28,0l-786.17 0 310.48 -722.27c1057.54,-2460.04 2109.76,-4922.37 3164.17,-7383.74l-2041.46 1178.62 -3567.99 2059.99 0 4119.95 0 4119.95 3567.99 2059.99z"/>
  <path class="fil0" d="M16290.11 28042.31c-183.22,126.57 -405.29,200.73 -643.66,200.73 -238.67,0 -460.56,-74.69 -643.32,-201.91l0 173.34 -2291.69 0 -95.97 -212.14 -164.73 0 -96.92 212.14 -683.9 0 -17.28 37.87 -452.13 0 -252.95 -556.52c-198.78,327.95 -560.49,547.22 -970.38,547.22 -238.4,0 -460.06,-74.52 -642.69,-201.48l0 201.79 -495.93 0 -418.45 -407.11 0 380.15 -989.53 0 0 -2.25 -273.57 0 0.24 0.33 -2166.65 0 -1.26 -1979.55c-30.47,2.48 -61.26,3.73 -92.33,3.73 -260.21,0 -500.47,-88.76 -691.82,-237.61 -17.56,14.18 -35.38,27.78 -53.45,40.77 214.85,101.36 381.27,300.54 432.69,539.2l40.06 185.95 164.46 -2.21 -8.87 355.93c-1.18,47.2 -4.24,94.46 -9.38,141.49l169.52 0 -3.29 970.8 -344.56 -3.11c-121.68,-1.1 -243.59,-36.56 -357.62,-88.19 -135.4,71.34 -287.4,107.14 -446.47,107.14 -458.24,0 -862.26,-335.12 -862.26,-808.97 0,-174.81 67.02,-356.74 174.47,-504.48 -21.23,-71.43 -33.88,-145.05 -33.88,-219.26 0,-194.91 83.59,-374.2 214.82,-508.17 -496.8,-118.64 -873.27,-566.7 -873.27,-1097.61 0,-616.29 513.36,-1134.71 1130.89,-1131.85 251.41,1.17 473.76,89.35 665.23,240 191.39,-150.03 432.12,-239.67 693.69,-239.67 238.51,0 460.05,74.56 642.69,201.52l0 -199.27 496.85 0 416.25 404.8 0 -380.42 990.81 0 0 69.61c125.5,-63.81 270.13,-98.49 421.23,-98.49 88.4,0 174.47,11 255.61,33.06l2057.8 0c135.36,0 264.75,30.91 380.14,86.35l0 -86.67 1854.18 0 0 163.77c180.76,-123.34 397.81,-195.65 629.52,-194.59 92.85,0.44 181.72,12.73 266.54,35.65l0 -4.51 1221.86 0 0 -0.32 989.53 0 0 172.56c182.69,-127.87 404.74,-203.05 644.27,-203.05 238.52,0 460.06,74.56 642.7,201.52l0 -199.27 496.85 0 416.24 404.8 0 -380.42 990.81 0 0 2233.53 -495.93 0 -21.91 -21.32 0 2025.71 -495.93 0 -418.45 -407.11 0 380.15 -989.52 0 0 -174.08zm1690.29 -2032.49l-182.92 -177.97 0 177.97 182.92 0zm-777.2 202.18l-183.26 0 183.26 178.23 0 -178.23zm-4881.45 -236.84c-34.9,-29.02 -68.05,-60.06 -99.25,-92.97 -36.44,47.8 -77.41,91.84 -122.38,131.48l191.98 0 17.93 -38.51 11.72 0zm-830.79 267.32c-1.5,0.01 -3.02,0.01 -4.52,0.01 -43.63,0 -86.45,-2.88 -128.29,-8.48l68.2 154.6 64.61 -146.13zm-2998.52 -232.66l0 -21.15c-7.34,7.2 -14.84,14.24 -22.47,21.15l22.47 0zm-148.76 93.39c-62.35,37.5 -130.43,67.67 -202.51,90.07l202.51 196.95 0 -287.02zm-1626.26 -89.21l-187.23 -182.15 0 182.15 187.23 0zm6956.03 -1017.43l-78.38 107.12 87.78 123.54 0 -230.66 -9.4 0zm-9951.97 109.93l-68.72 -67.44c-27.98,-27.45 -76.19,-65.28 -118.2,-65.28 -64.96,0 -133.01,73.36 -133.01,138.15 0,63.35 69.82,135.91 132.05,135.91 38.29,0 95.7,-50.94 120.21,-74.99l67.67 -66.35zm9504 0l-68.72 -67.44c-27.98,-27.45 -76.19,-65.28 -118.2,-65.28 -64.96,0 -133.01,73.36 -133.01,138.15 0,63.35 69.82,135.91 132.05,135.91 38.3,0 95.7,-50.94 120.21,-74.99l67.67 -66.35zm-4171.83 -6351.82l0 -101.88 562.51 0 1744.62 2408.21 1743.08 -2408.21 562.59 0 0 4796.19 -1490.11 0 0 -987.04 -632.68 919.97 -364.44 0 -635.43 -921.95 0 989.02 -1490.14 0 0 -3415.9 -1115.01 3466.84 -515.55 0 -785.56 -1700.26 -774.27 1700.26 -514.34 0 -1526.17 -4745.25 1591.46 0 417.74 1368.68 579.95 -1353.4 466.46 0 577.06 1348.93 415.16 -1364.21 1183.07 0zm6113.87 3389.37l0 1304.94 -1490.13 0 0 -4693.46 1750.29 0c941.96,0 1752,741.13 1752,1695.96 0,954.34 -811.37,1692.56 -1752,1692.56l-260.16 0zm0 -1905.19l0 421.61 261.62 1.1c123.41,0.52 260.42,-83.03 260.42,-217.72 0,-130.29 -146.21,-204.99 -261.88,-204.99l-260.16 0zm-10270.51 5007.05c74.59,0 138.79,-60.57 138.79,-135.9 0,-75.86 -63.01,-138.48 -138.79,-138.48 -75.52,0 -136.87,63.38 -136.87,138.48 0,74.64 62.48,135.9 136.87,135.9zm11267.28 0c74.59,0 138.79,-60.57 138.79,-135.9 0,-75.86 -63,-138.48 -138.79,-138.48 -75.52,0 -136.87,63.38 -136.87,138.48 0,74.64 62.48,135.9 136.87,135.9zm-6187.11 2004.38c74.59,0 138.79,-60.56 138.79,-135.89 0,-75.86 -63,-138.49 -138.79,-138.49 -75.52,0 -136.87,63.38 -136.87,138.49 0,74.63 62.49,135.89 136.87,135.89zm5669.27 0c74.59,0 138.79,-60.56 138.79,-135.89 0,-75.86 -63.01,-138.49 -138.79,-138.49 -75.52,0 -136.87,63.38 -136.87,138.49 0,74.63 62.48,135.89 136.87,135.89z"/>
  <g id="_1541852811440">
   <g style="clip-path:url(#id1)">
    <image x="2216.01" y="18440.46" width="16688.02" height="10359.63" xlink:href="WMPlogo_Images\WMPlogo_ImgID2.png"/>
   </g>
  </g>
  <path class="fil2" d="M5598.66 23157.29l44.15 0 992.49 -2179.41 1006.93 2179.41 46.7 0 1305.78 -4059.97 -870.24 0 -614.68 2019.8 -857.51 -2004.52 -14.43 0 -860.05 2007.06 -617.23 -2022.34 -867.69 0 1305.78 4059.97zm7680.16 -4161.85l-1917.92 2649.76 -1919.62 -2649.76 -44.99 0 0 4110.91 804.86 0 0 -1747.27 1158.05 1680.2 4.25 0 1155.5 -1680.2 0 1747.27 804.86 0 0 -4110.91 -44.99 0zm741.19 4110.91l804.86 0 0 -1304.93 602.8 0c775.99,0 1409.36,-607.89 1409.36,-1349.93 0,-743.73 -633.37,-1353.32 -1409.36,-1353.32l-1407.66 0 0 4008.18zm1407.66 -2102.15l-602.8 -2.55 0 -1105.41 602.8 0c333.66,0 604.49,245.36 604.49,547.61 0,309.89 -270.83,562.89 -604.49,560.35zm-11884.71 4891.79c229.48,0 392.2,-99.49 525.72,-232.36l-174.92 -246.17c-100.46,98.53 -220.81,172.99 -360.1,172.99 -233.97,0 -474.69,-208.61 -474.69,-478.53 0,-264.78 232.05,-480.78 475.65,-480.78 130.63,0 254.83,61.94 358.18,163.36l175.88 -240.39c-158.87,-152.13 -333.79,-230.12 -531.17,-233.01 -426.86,0 -786.65,361.71 -786.65,789.21 0,425.58 354.97,785.68 792.1,785.68zm1354.08 0c434.56,0 789.53,-352.72 789.53,-784.07 0,-435.21 -354.97,-790.5 -788.57,-790.5 -433.6,0 -786.64,355.29 -786.64,790.5 0,431.35 353.04,784.07 785.68,784.07zm0 -307.46c-264.14,0 -479.5,-215.36 -479.5,-478.54 0,-264.78 215.36,-481.1 479.5,-481.1 265.1,0 481.42,216.32 481.42,481.1 0,263.18 -216.32,478.54 -481.42,478.54zm1899.37 -1240.47l0 848.91 -898.01 -873.3 -15.08 0 0 1545.69 304.26 0 0 -848.91 900.26 875.87 14.12 0 0 -1548.26 -305.55 0zm1023.19 1550.18c325.44,0 550.75,-175.56 550.75,-452.22 0,-233.65 -157.91,-362.02 -409.21,-480.78 -174.6,-81.84 -289.82,-112.97 -289.82,-203.48 0,-78.31 85.05,-144.1 199.31,-144.1 85.05,0 172.99,36.59 217.92,127.09l224.35 -157.26c-68.36,-182.94 -239.11,-268.31 -447.08,-268.31 -279.23,0 -500.68,172.67 -500.68,434.88 0,242.32 186.79,335.71 357.21,420.44 159.51,79.28 341.81,166.9 341.81,278.26 0,80.88 -96.28,139.3 -239.75,139.3 -131.58,0 -228.19,-48.79 -294.95,-156.31l-243.28 171.39c101.74,187.76 284.68,291.1 533.42,291.1zm1693.32 -1546.01l-1051.1 0 0 301.69 373.26 0 0 1213.51 305.54 0 0 -1213.51 372.3 0 0 -301.69zm1331.94 1515.2l-430.07 -602.42c162.4,-57.45 279.86,-227.55 279.86,-422.05 0,-272.8 -232.04,-490.73 -515.44,-490.73l-493.94 0 0.96 1515.2 303.62 0 0 -716.36 483.03 716.36 371.98 0zm-855.01 -1213.51l195.46 0c102.38,0 195.46,82.81 195.46,190.97 0,107.84 -92.12,191.6 -195.46,190.64l-195.46 -0.96 0 -380.65zm1496.58 1245.93c322.55,0 584.45,-249.38 584.45,-592.47l0 -955.47 -306.19 0 0 954.5c0,164.65 -132.55,285.97 -279.22,285.97 -146.68,0 -277.3,-120.36 -277.3,-285.97l0 -954.5 -306.19 0 0 955.47c0,343.09 261.9,592.47 584.45,592.47zm1560.45 -3.86c229.48,0 392.2,-99.49 525.72,-232.36l-174.92 -246.17c-100.46,98.53 -220.81,172.99 -360.1,172.99 -233.97,0 -474.69,-208.61 -474.69,-478.53 0,-264.78 232.05,-480.78 475.65,-480.78 130.63,0 254.83,61.94 358.18,163.36l175.88 -240.39c-158.87,-152.13 -333.79,-230.12 -531.17,-233.01 -426.86,0 -786.65,361.71 -786.65,789.21 0,425.58 354.97,785.68 792.1,785.68zm1656.42 -1543.76l-1051.1 0 0 301.69 373.26 0 0 1213.51 305.54 0 0 -1213.51 372.3 0 0 -301.69zm170.75 1515.2l304.26 0 0 -1515.52 -304.26 0 0 1515.52zm1290.21 28.56c434.56,0 789.53,-352.72 789.53,-784.07 0,-435.21 -354.97,-790.5 -788.57,-790.5 -433.6,0 -786.64,355.29 -786.64,790.5 0,431.35 353.04,784.07 785.68,784.07zm0 -307.46c-264.14,0 -479.5,-215.36 -479.5,-478.54 0,-264.78 215.36,-481.1 479.5,-481.1 265.1,0 481.42,216.32 481.42,481.1 0,263.18 -216.32,478.54 -481.42,478.54zm1899.37 -1240.47l0 848.91 -898.01 -873.3 -15.08 0 0 1545.69 304.26 0 0 -848.91 900.26 875.87 14.12 0 0 -1548.26 -305.55 0zm-13467.15 3256.71c-63.23,0 -146.68,-34.66 -237.83,-91.15 46.86,-112.65 75.11,-247.45 78.96,-401.5l-285 3.85c-3.54,76.06 -15.09,147.63 -35.63,211.5 -216,-195.78 -407.28,-449.65 -407.28,-600.17 0,-81.84 57.45,-134.48 113.93,-134.48 57.45,0 117.79,53.6 133.84,118.43l292.06 -58.09c-37.55,-174.28 -205.08,-340.85 -415.63,-340.85 -234.93,0 -424.61,207.01 -424.61,403.76 0,85.69 35.62,188.07 95.64,295.27 -113.94,76.06 -236.22,253.55 -236.22,428.46 0,202.2 164.65,466.34 519.62,466.34 167.53,0 312.6,-58.09 422.69,-168.18 141.86,91.8 278.26,148.28 384.49,149.25l0.97 -282.44zm-824.2 3.53c-145.07,0 -214.71,-73.5 -214.71,-190.96 0,-81.84 44.29,-139.29 98.85,-185.19 89.54,112.65 195.78,222.74 307.79,319.66 -52.64,36.59 -116.51,56.49 -191.93,56.49zm2719.4 263.5l-430.07 -602.42c162.4,-57.45 279.86,-227.55 279.86,-422.05 0,-272.8 -232.04,-490.73 -515.44,-490.73l-493.94 0 0.96 1515.2 303.62 0 0 -716.36 483.03 716.36 371.98 0zm-855.01 -1213.51l195.46 0c102.38,0 195.46,82.81 195.46,190.97 0,107.84 -92.12,191.6 -195.46,190.64l-195.46 -0.96 0 -380.65zm1912.22 -1.92l0 -299.77 -913.42 0 0 1514.88 913.42 0 0 -301.69 -609.16 0 0 -314.53 522.82 0 0 -303.62 -522.82 0 0 -295.27 609.16 0zm1137.43 -303.94l0 848.91 -898.01 -873.3 -15.08 0 0 1545.69 304.26 0 0 -848.91 900.26 875.87 14.12 0 0 -1548.26 -305.55 0zm1290.86 1547.93c434.56,0 789.53,-352.72 789.53,-784.07 0,-435.21 -354.97,-790.5 -788.57,-790.5 -433.6,0 -786.64,355.29 -786.64,790.5 0,431.35 353.04,784.07 785.68,784.07zm0 -307.46c-264.14,0 -479.5,-215.36 -479.5,-478.54 0,-264.78 215.36,-481.1 479.5,-481.1 265.1,0 481.42,216.32 481.42,481.1 0,263.18 -216.32,478.54 -481.42,478.54zm1838.07 -1236.62l-389.31 880.36 -388.35 -880.36 -322.55 0 706.08 1553.39 11.24 0 708.97 -1553.39 -326.08 0zm1117.22 1515.52l329.93 0 -724.7 -1554.03 -9.3 0 -723.74 1554.03 328.97 0 96.93 -212.15 605.95 0 95.96 212.15zm-583.48 -471.47l184.86 -405.36 184.23 405.36 -369.09 0zm1836.46 -1043.73l-1051.1 0 0 301.69 373.26 0 0 1213.51 305.54 0 0 -1213.51 372.3 0 0 -301.69zm170.75 1515.2l304.26 0 0 -1515.52 -304.26 0 0 1515.52zm1290.21 28.56c434.56,0 789.53,-352.72 789.53,-784.07 0,-435.21 -354.97,-790.5 -788.57,-790.5 -433.6,0 -786.64,355.29 -786.64,790.5 0,431.35 353.04,784.07 785.68,784.07zm0 -307.46c-264.14,0 -479.5,-215.36 -479.5,-478.54 0,-264.78 215.36,-481.1 479.5,-481.1 265.1,0 481.42,216.32 481.42,481.1 0,263.18 -216.32,478.54 -481.42,478.54zm1899.37 -1240.47l0 848.91 -898.01 -873.3 -15.08 0 0 1545.69 304.26 0 0 -848.91 900.26 875.87 14.12 0 0 -1548.26 -305.55 0z"/>
 </g>
</svg>
