<?xml version="1.0" encoding="UTF-8"?>
<!DOCTYPE svg PUBLIC "-//W3C//DTD SVG 1.1//EN" "http://www.w3.org/Graphics/SVG/1.1/DTD/svg11.dtd">
<!-- Creator: CorelDRAW -->
<svg xmlns="http://www.w3.org/2000/svg" xml:space="preserve" width="210mm" height="297mm" version="1.1" style="shape-rendering:geometricPrecision; text-rendering:geometricPrecision; image-rendering:optimizeQuality; fill-rule:evenodd; clip-rule:evenodd"
viewBox="0 0 21000 29700"
 xmlns:xlink="http://www.w3.org/1999/xlink"
 xmlns:xodm="http://www.corel.com/coreldraw/odm/2003">
 <defs>
  <style type="text/css">
   <![CDATA[
    .fil1 {fill:white}
    .fil3 {fill:white;fill-rule:nonzero}
    .fil2 {fill:url(#id0)}
    .fil0 {fill:url(#id1)}
   ]]>
  </style>
  <linearGradient id="id0" gradientUnits="userSpaceOnUse" x1="6026.09" y1="13853.84" x2="6026.09" y2="490.25">
   <stop offset="0" style="stop-opacity:1; stop-color:#F4C118"/>
   <stop offset="1" style="stop-opacity:1; stop-color:#F7FFB2"/>
  </linearGradient>
  <linearGradient id="id1" gradientUnits="userSpaceOnUse" x1="10409.34" y1="23318.14" x2="10409.34" y2="1244.73">
   <stop offset="0" style="stop-opacity:1; stop-color:#DB5000"/>
   <stop offset="1" style="stop-opacity:1; stop-color:#E86C26"/>
  </linearGradient>
 </defs>
 <g id="Camada_x0020_1">
  <metadata id="CorelCorpID_0Corel-Layer"/>
  <path class="fil0" d="M7374.19 23114.04c10.61,-84.51 19.25,-171.33 29,-256.58l645.45 -5708.58c8.6,-73.94 33.19,-201.78 3.65,-262.8 -36.96,-76.29 -109.43,-75.93 -211.69,-75.89 -190.49,0.08 -380.99,-0.03 -571.48,0 -264.07,0.05 -291.58,5.28 -314.54,264.98l-232.78 2654.95c-14.71,178.52 -73.2,940.86 -94.18,1057.68l-35 -0.15c-18.36,-40.59 -444.67,-2112.29 -453.59,-2154.37l-339.42 -1622.81c-49.42,-247.26 -154.16,-200.28 -447.98,-200.28 -314.98,0 -373.04,-39.1 -430.05,225.87 -259.07,1204.31 -503.79,2431.44 -766.02,3633.49 -20.83,95.48 -4.89,120.88 -63.37,116.58 -26.12,-160.91 -31.23,-367.66 -45.91,-534.82 -93.27,-1062.9 -174.75,-2135.02 -266.74,-3198.84 -22.16,-256.25 -79.49,-242.28 -330.37,-242.28 -841.17,0 -800.93,-58.8 -760.45,354.9 33.79,345.3 74.08,693 112.01,1038.88l534.35 4948.24c9.87,95.56 26.17,156.47 103.42,182.5 59.75,20.14 702.08,10.5 852.91,10.52 100.14,0.01 158.74,-20.95 194.8,-89.72 35.83,-68.32 92.85,-364.49 115.33,-463.35l541.94 -2337.73c57.05,-245.3 177.3,-719.47 216.47,-936.91 27.78,46.32 94.02,382.99 112.98,466.23l650.36 2824.7c98.49,421.48 63.42,537.29 326.19,536.71 165.18,-0.35 769.52,17.3 841.27,-21.97 72.3,-39.57 71.23,-111.9 83.44,-209.15zm-841.76 -19467.93c-193.99,124.35 -369.78,245.25 -561.36,370.2 -93.32,60.87 -187.04,122.26 -280.67,185.3 -93.76,63.12 -182.02,124.7 -277.22,182.63 -112.99,64.98 -337.88,225.02 -470.42,310.31l-942.2 622.1c-469.16,309.54 -933.71,610.64 -1403.29,927.82 -152.75,103.16 -199.13,96.74 -198.25,189.78 1.22,130.26 0.16,261.04 0.16,391.37l0.02 6233.9c0,250.71 -10.26,523.64 0.91,771.61l620.47 11.22c59.11,1.49 93.55,-6.99 150.25,-6.72 52.67,0.25 105.36,0.12 158.03,0.11l303.01 5.88 1.34 -6797.93c33.94,-30.14 71.06,-50.74 113.74,-78.03 37.14,-23.76 79.84,-54.27 117.04,-78.82l471.6 -310.47c84.46,-53.31 163.69,-111.16 238.44,-155.72l1445.51 -957.3c244.44,-160.25 483.45,-312.81 724.36,-478.97l727.84 -477.9c95.98,-70.84 227.86,-154.79 336.73,-224.8l2363.2 -1555.79c13.98,0.34 372.97,243.31 414.53,271.49 465.09,315.35 968.97,631.9 1430.66,945.4l1018.26 673.4c687.27,445.2 1360.41,906.09 2041.3,1350.32 15.81,10.31 1618.81,1061.99 1626.01,1077.19 8.44,133.98 1.42,292.07 1.24,428.63 -0.18,140.36 0.31,280.74 -0.05,421.1l0.12 2128.11c0,80.48 -0.79,126.11 11.76,202.47 39.05,237.36 -4.72,250.22 -11.55,391.21 -3.28,67.42 -0.15,142.63 -0.23,210.94l-0.13 2120.57c-0.06,153.55 9.86,742.65 -1.79,845.68 -56.94,15.79 -3232.45,4.96 -3281.68,4.92 -1096.33,-0.74 -2192.72,-0.37 -3289.08,0.11 -11.87,-137.35 9.64,-189.88 -39.45,-319.11 -34.66,-91.28 -90.77,-166.71 -145.18,-216.01 -161.29,-146.08 -289.2,-150.16 -556.66,-157.55 -163.33,-4.51 -1338.6,-52.1 -1394.3,-33.79l-9.88 352.02c-39.45,15.54 -670.41,-10.38 -766.47,-14.53 -124.43,-5.39 -252.58,-8.45 -378.59,-11.33 -59.26,-1.36 -132.35,-13.24 -182.23,13.94 -109.15,59.48 -98.19,203.68 -1.78,253.8 58.77,30.57 472.7,27.74 558.29,31.01 251,9.61 507.12,7.68 757.98,21.76 12.98,62.87 -5.76,409.29 -9.3,498.17 -6.44,160.34 -9.04,324.91 -15.09,485.57 -253.42,1.14 -517.86,-15.81 -769.27,-22.46 -129.2,-3.42 -255.43,-7.44 -383.73,-11.01 -76.68,-2.14 -254.05,-22.32 -250.97,143.75 2.97,159.77 173.68,141.55 250.93,144.34 123.05,4.43 252.08,7.44 375.81,10.86 253.83,7.02 509.7,10.88 764.34,21.5 20.21,80.03 -22.38,302.45 0.25,366.96 410.29,19 826.67,23.66 1235.53,35.36 189.76,5.43 420.63,33.1 578.55,-38.18 142.25,-64.2 251.77,-170.2 309.35,-323.05l7876.64 -2.94c8.68,-218.27 0.74,-453.45 0.74,-673.58l0.24 -7918.7c0.91,-78.41 -12.25,-67.61 -62.38,-99.98l-2435.51 -1610.25c-135.72,-88.02 -265.88,-172.97 -402.77,-266.32 -267.21,-182.21 -539.97,-353.97 -810.35,-535.55 -137.15,-92.1 -270.52,-181.64 -407.8,-269.1 -427.84,-272.54 -3622.43,-2406.98 -3646.29,-2407.4 -43.27,16.24 -185.57,118.02 -233.76,149.73 -525.11,345.51 -1061.36,707.78 -1589.95,1049.66 -447.49,289.43 -913.59,609.45 -1362.74,900.98l-452.79 300.1 -0.02 0.01zm9753.23 16430.12l-0.45 -2186.54c175.84,-6.03 359.22,-0.61 533.76,-0.6 168,0.01 354.11,-14.21 439.48,92.52 93.35,116.72 71.91,287.56 71.91,462.1l0 1067.81c0,173.67 22.69,347.09 -68.26,465.72 -81.61,106.45 -266.05,99.93 -435.61,99.93 -175.12,0 -367.91,7.59 -540.83,-0.94zm0.15 1080.3c391.57,-22.47 821.68,27.88 1207.29,-15.52 368.18,-41.44 638.95,-224.2 774.83,-451.2 192.85,-322.17 173.51,-628.89 173.51,-1050.46 0,-408.56 0,-817.15 0,-1225.73 0,-397.93 24.29,-764.34 -140.68,-1083.2 -133.21,-257.51 -366.29,-427.59 -729.84,-495.47 -182.29,-34.03 -401.09,-24.78 -594.03,-24.78l-1534 0c-98.78,0 -205.77,-14.97 -248.62,53.96 -39.93,64.25 -20.05,483.51 -20.05,594.49l0 4286.27c0,133.9 -12.26,1461.43 9.62,1522.23 32.65,90.69 125.65,77.99 228.98,77.98 203.03,0 406.06,0 609.08,0 290.44,0 263.41,-2.91 263.43,-351.92 0,-203.03 0,-406.06 0,-609.1 0,-405.72 -9.7,-823.34 0.48,-1227.55zm-5486.07 -3821.4c-95.08,-422.41 -61.03,-525.2 -327.28,-524.97l-842.2 0.01c-232.16,0 -337.55,-35.74 -337.19,219.81l0.03 5910.56c0,186.4 -44.89,392.91 149.17,403.96 111.31,6.34 791.06,4.49 830.58,-9.38 81.86,-28.74 98.36,-88.22 98.57,-183.85l-0.08 -1398.86c0,-169.55 -9.65,-2135.23 2.25,-2246.77l53.28 0.57 793.61 3611.87c55.63,262.02 119.72,227.02 394.96,227.02 274.77,0 343.22,35.59 400.22,-230.1l564.3 -2578.32c68.75,-315.67 150.95,-729.71 226.08,-1030.39l55.52 0.47c12.63,170.32 1.41,385.98 1.41,561.21l0 2819.94c0,94.61 -2.11,191.69 0.12,286.01 2.23,94.44 33.68,146.05 112.08,165.5 78.08,19.38 443.34,5.68 550.24,5.68 86.28,0 201.88,6.53 284.69,-1.2 84.52,-7.89 128.74,-55.58 138.79,-135.69 9.49,-75.73 2.05,-201.7 2.05,-282.71l0.06 -5903.06c0.37,-251.01 -127.01,-212.27 -350.4,-212.27l-849.71 -0.02c-103.64,-0.14 -158.46,14.97 -197.85,82.21 -35.05,59.81 -89.51,354.95 -110.27,446.19 -139.04,610.96 -271.87,1221.08 -410.21,1838.97l-412.24 1836.68 -820.58 -3679.07z"/>
  <path class="fil1" d="M11579.02 11570.62c58.36,28.24 166.35,55.2 231.1,76.07 80.31,25.88 155.55,48.89 233.23,74.86l943.41 304.99c58.48,19.26 441.79,148.5 466.8,148.56 -74.2,8.8 -419.85,-46.16 -520.39,-58.4 -175.46,-21.36 -353.48,-43.11 -529.15,-63.91 -347.67,-41.18 -703.11,-93.64 -1049.69,-126.43l-418.86 678.83c-69.93,111.37 -140.95,224.82 -209.66,339.09 -65.56,109.09 -182.88,246.86 -85.51,406.08 89.54,146.37 219.47,130.45 418.69,130.45l4962.91 0c184.54,0 361.68,28.26 456.52,-92.73 100.03,-127.58 87.62,-282.43 -47.29,-384.53 -192.5,-145.69 -440.76,-306.07 -643.13,-454.49 -202.15,-148.24 -449.44,-308.41 -649.42,-456.15l-321.81 -227.01c-111.92,-75.14 -214.65,-154.95 -326.52,-229.94 -200.94,-134.7 -443.96,-312.98 -648.78,-456.62l-966.07 -680.6c-113.09,-77.68 -242.82,-193.45 -357.45,-199.76 -179.43,-9.86 -240.79,130.49 -309.47,240.31 -67.03,107.2 -621.89,998.43 -629.46,1031.33z"/>
  <path class="fil1" d="M18456.17 15433.68c-147.83,15.93 -382.18,2.02 -539.32,2.04l-6970.66 0c-177.97,0 -355.92,0 -533.89,0 -90.24,0 -180.46,0.02 -270.7,0 -79.73,-0.04 -181.48,-13.47 -177.78,82.55 3.45,89.34 112.18,75.52 192.82,75.51l6158.53 0c160.21,0 2035.82,-9.17 2141,2 0,122.13 0,244.26 0,366.4 0,97.59 -34.44,284.25 83.78,276.31 56.67,-3.8 74.11,-46.93 74.49,-103.09l-0.25 -541.62 1716.44 0.01c77.37,0.17 160.28,2.88 156.59,-81.93 -3.76,-86.99 -90.55,-76.2 -171.63,-76.14l-1701.4 0.01 0.02 -10053.93c0,-87.21 27.49,-241.74 -80.36,-239.69 -108.69,2.05 -77.68,169.71 -77.68,254.74l-0.01 10036.83 0.01 0z"/>
  <path class="fil1" d="M1909.67 6270.74c107.97,-69.06 215.29,-143.88 323.9,-217.2l957.63 -644.05c213.84,-144.1 422.92,-284.15 637.86,-429.7 106.32,-72 212.34,-141.8 319.74,-214.31 56.73,-38.3 291.51,-175.25 299.14,-235.03 5.59,-43.76 -40.28,-132.09 -148.96,-58.26l-2387.73 1605.33 -2.17 -537.79c0,-87.54 17.87,-343.58 -27.33,-380.28 -22.56,-18.32 -64.75,-23.23 -94.93,-4.17 -55.74,35.2 -35.78,159.95 -35.78,234.04l-0.33 800.24 -836.76 559.64c-50.98,34.54 -247.44,148.92 -257.84,200.7 -14.25,70.93 52.54,119.71 119.41,82.23l697.75 -467.98c58.94,-39.94 227.69,-158.19 277.69,-183.42 6.36,1666.8 0.08,3334.93 0.08,5001.88l0 4369c0,63.68 -15,413.97 16.75,455.47 20.45,26.75 62.28,42.94 102.83,19.43 57.85,-33.55 38.46,-170.9 38.46,-279.39l0 -8429.7c0,-410.34 -11.94,-838.59 0.59,-1246.69l0 0.01z"/>
  <path class="fil1" d="M10472.44 10361.8c14.94,-29.55 42.15,-45.95 66.88,-77.83 17.81,-22.95 43.64,-63.67 57.34,-93.36 28.32,-61.35 59.33,-173.8 41.26,-250.76 3.29,-54.83 -24.49,-130.22 -45.6,-173.26 -86.69,-176.79 -218.99,-229.9 -399.49,-300.07 -332.28,-129.16 -669.75,-274.32 -998.03,-400.65 -109.7,-42.22 -223.64,-94.48 -333.51,-132.84 -286.93,-100.18 -533.64,52.11 -623.13,245.06 -110.54,238.29 -25.95,512.74 202.05,642.5 84.51,48.08 231.73,97.8 328.97,137.1 111.05,44.86 220.61,88.38 332.6,133.67 224.38,90.76 443.13,178.79 664.52,267.87 182.28,73.35 356.56,165.63 556.25,84.29 92.48,-37.66 118.55,-70.16 149.89,-81.72z"/>
  <path class="fil2" d="M5413.18 4384.24c95.2,-57.93 183.46,-119.51 277.22,-182.63 93.63,-63.04 187.35,-124.43 280.67,-185.3 191.58,-124.95 367.37,-245.85 561.36,-370.2 -9,-12.39 -9.62,-20.82 -7.02,-45.87l357.71 -2318.99c15.56,-101.8 121.89,-747.5 117.56,-790.33l-1187.65 2915.99c-23.22,56.76 -380.68,950.17 -399.85,977.33zm-839.15 2036.41c21.29,-7.43 4.02,-3.43 10.17,6.41l-483.22 1185.91c45.99,-9.59 882.27,-455.36 966.71,-499.59 52.04,-27.27 292.03,-160.35 326.92,-166.66l-830.78 3094.08c53.23,-9.01 243.53,-110.97 299.73,-139.09l575.32 -281.79c49.43,-24.1 98.16,-48.08 146.26,-71.88 44.28,-21.9 108.99,-58.77 154.4,-71.64l-711.32 4377.58c119.7,-290.37 248.61,-591.15 367.98,-885.04 121.08,-298.14 244.35,-593.78 365.18,-890.57 242.24,-594.97 487.43,-1192.83 732.59,-1786.44l1279.41 -3120.24c23.44,-57.36 176.7,-418.96 180.26,-449.93l-1344.86 633.23 862.96 -2848.51 -727.84 477.9c-240.91,166.16 -479.92,318.72 -724.36,478.97l-1445.51 957.3z"/>
  <path class="fil1" d="M10472.44 10361.8l375.85 153.94 0.6 1656.35c19.09,-17.77 63.06,-91.62 81.03,-121.43 26.34,-43.66 53.03,-86.1 81.71,-128.85 27.92,-41.62 56.36,-87.57 81.5,-129.2l163.63 -257.41c43.55,-65.5 49.67,-63.81 49.33,-160.08l-0.01 -834.71c0,-348.08 -65.24,-358.41 -361.94,-479.24 -95.95,-39.09 -210.51,-91.85 -306.22,-121.32 18.07,76.96 -12.94,189.41 -41.26,250.76 -13.7,29.69 -39.53,70.41 -57.34,93.36 -24.73,31.88 -51.94,48.28 -66.88,77.83z"/>
  <path class="fil3" d="M2866.27 26231.76c-24.48,15.83 -59.39,34.91 -104.73,57.22 -45.35,22.31 -98.61,41.39 -159.79,57.22 -61.19,15.84 -127.77,23.03 -199.74,21.59 -122.37,-1.43 -231.77,-23.03 -328.23,-64.78 -96.45,-41.74 -178.86,-98.97 -247.24,-171.66 -68.38,-72.7 -120.56,-156.2 -156.55,-250.49 -35.99,-94.29 -53.99,-194.7 -53.99,-301.23 0,-118.04 19.08,-226.37 57.23,-324.98 38.14,-98.61 91.77,-184.26 160.87,-256.96 69.1,-72.7 150.79,-129.2 245.08,-169.51 94.29,-40.31 197.58,-60.46 309.87,-60.46 95.01,0 181.38,12.95 259.12,38.86 77.74,25.92 143.24,55.43 196.5,88.54l-90.69 211.61c-41.75,-28.79 -93.21,-56.14 -154.39,-82.05 -61.19,-25.91 -129.2,-38.87 -204.06,-38.87 -97.89,0 -188.23,25.91 -271,77.74 -82.78,51.82 -149,121.64 -198.66,209.45 -49.67,87.82 -74.5,186.43 -74.5,295.84 0,110.84 22.67,210.17 68.02,297.99 45.35,87.81 109.77,156.91 193.26,207.29 83.5,50.39 181.39,75.58 293.67,75.58 80.62,0 151.52,-12.24 212.7,-36.71 61.18,-24.47 111.21,-52.54 150.08,-84.21l97.17 202.98zm248.32 -662.92c0,-107.97 20.52,-210.18 61.54,-306.63 41.03,-96.45 98.25,-181.75 171.67,-255.89 73.42,-74.13 158.35,-132.44 254.81,-174.9 96.45,-42.47 199.38,-63.7 308.78,-63.7 109.41,0 212.7,21.23 309.87,63.7 97.17,42.46 182.82,100.77 256.96,174.9 74.14,74.14 132.08,159.44 173.83,255.89 41.75,96.45 62.62,198.66 62.62,306.63 0,110.84 -20.87,214.49 -62.62,310.94 -41.75,96.45 -99.69,181.39 -173.83,254.81 -74.14,73.41 -159.79,130.64 -256.96,171.66 -97.17,41.03 -200.46,61.54 -309.87,61.54 -109.4,0 -212.33,-20.51 -308.78,-61.54 -96.46,-41.02 -181.39,-97.53 -254.81,-169.51 -73.42,-71.97 -130.64,-156.55 -171.67,-253.72 -41.02,-97.17 -61.54,-201.9 -61.54,-314.18zm233.21 2.15c0,106.53 25.19,203.7 75.58,291.52 50.38,87.81 118.76,157.63 205.14,209.45 86.37,51.83 182.82,77.74 289.35,77.74 105.09,0 200.1,-25.91 285.03,-77.74 84.94,-51.82 152.6,-121.64 202.98,-209.45 50.39,-87.82 75.58,-185.71 75.58,-293.67 0,-107.97 -25.55,-206.22 -76.66,-294.76 -51.1,-88.53 -119.48,-158.71 -205.13,-210.53 -85.66,-51.83 -181.03,-77.74 -286.12,-77.74 -106.53,0 -202.62,26.27 -288.27,78.82 -85.66,52.54 -153.32,123.08 -202.98,211.61 -49.67,88.54 -74.5,186.79 -74.5,294.75zm3074.91 833.51l-1207.07 -1204.91 66.94 21.59 4.31 1129.34 -226.73 0 0 -1615.19 8.64 0 1191.96 1204.91 -51.82 -12.95 -4.32 -1142.3 224.57 0 0 1619.51 -6.48 0zm1265.38 -1323.68c-54.71,-28.79 -113.73,-53.26 -177.07,-73.42 -63.34,-20.15 -124.52,-30.23 -183.54,-30.23 -82.06,0 -146.84,18.36 -194.34,55.07 -47.51,36.71 -71.26,87.45 -71.26,152.23 0,44.63 15.83,83.5 47.5,116.61 31.67,33.11 72.7,61.9 123.09,86.37 50.38,24.47 103.64,47.51 159.79,69.1 64.78,23.03 127.4,52.18 187.86,87.45 60.46,35.27 110.13,82.42 149,141.44 38.86,59.02 58.3,138.2 58.3,237.53 0,82.05 -20.88,156.91 -62.62,224.57 -41.75,67.66 -101.13,121.28 -178.15,160.87 -77.02,39.59 -169.51,59.38 -277.48,59.38 -100.77,0 -196.14,-16.19 -286.11,-48.58 -89.97,-32.39 -167.35,-70.9 -232.13,-115.53l101.49 -179.22c50.38,38.87 112.29,72.7 185.7,101.49 73.42,28.79 143.24,43.18 209.46,43.18 48.95,0 96.45,-8.27 142.52,-24.83 46.06,-16.55 84.57,-42.83 115.52,-78.81 30.95,-35.99 46.43,-83.5 46.43,-142.52 0,-48.95 -13.68,-90.69 -41.03,-125.24 -27.35,-34.55 -62.98,-64.06 -106.89,-88.54 -43.9,-24.47 -91.05,-46.06 -141.43,-64.78 -48.95,-18.71 -98.97,-39.23 -150.08,-61.54 -51.1,-22.31 -97.89,-50.02 -140.36,-83.13 -42.46,-33.11 -77.01,-73.78 -103.65,-122.01 -26.63,-48.22 -39.94,-106.88 -39.94,-175.98 0,-84.94 19.79,-158.36 59.38,-220.26 39.59,-61.9 94.65,-110.84 165.19,-146.83 70.54,-35.99 151.15,-55.43 241.85,-58.31 103.65,0 194.34,12.6 272.07,37.79 77.74,25.19 146.12,55.79 205.14,91.77l-84.21 174.91zm319.58 -295.83l1042.96 0 0 218.1 -414.59 0 0 1347.43 -226.73 0 0 -1347.43 -401.64 0 0 -218.1zm1796.57 0c109.41,0 206.58,19.08 291.52,57.22 84.93,38.15 151.51,93.58 199.74,166.27 48.22,72.7 72.34,162.32 72.34,268.84 0,61.9 -9.36,123.09 -28.08,183.55 -18.71,60.46 -48.58,115.16 -89.61,164.11 -41.03,48.94 -95.73,88.17 -164.11,117.68 -68.38,29.51 -152.23,44.27 -251.56,44.27l-231.05 0 0 563.59 -224.58 0 0 -1565.53 425.39 0zm25.92 783.85c80.61,0 142.87,-15.48 186.78,-46.43 43.91,-30.95 74.5,-68.38 91.77,-112.29 17.28,-43.9 25.92,-85.29 25.92,-124.16 0,-28.79 -5.04,-59.38 -15.12,-91.77 -10.08,-32.39 -26.27,-63.34 -48.59,-92.85 -22.31,-29.52 -52.18,-53.27 -89.61,-71.26 -37.43,-18 -83.49,-26.99 -138.2,-26.99l-239.68 0 0 565.75 226.73 0zm263.44 133.88l405.96 647.8 -263.45 0 -412.43 -643.49 269.92 -4.31zm922.04 88.53c0,66.22 16.2,126.32 48.59,180.3 32.39,53.99 76.65,96.81 132.8,128.49 56.14,31.67 118.04,47.5 185.7,47.5 71.98,0 136.04,-15.83 192.18,-47.5 56.15,-31.68 100.41,-74.5 132.8,-128.49 32.39,-53.98 48.59,-114.08 48.59,-180.3l0 -1006.26 222.41 0 0 1012.74c0,113.72 -26.63,213.41 -79.89,299.07 -53.27,85.65 -124.89,152.23 -214.86,199.74 -89.97,47.5 -190.38,71.25 -301.23,71.25l0 0c-110.85,0 -211.25,-23.75 -301.23,-71.25 -89.97,-47.51 -161.23,-114.09 -213.77,-199.74 -52.55,-85.66 -78.82,-185.35 -78.82,-299.07l0 -1012.74 226.73 0 0 1006.26zm2537.24 440.51c-24.48,15.83 -59.39,34.91 -104.73,57.22 -45.35,22.31 -98.61,41.39 -159.79,57.22 -61.19,15.84 -127.77,23.03 -199.74,21.59 -122.37,-1.43 -231.77,-23.03 -328.23,-64.78 -96.45,-41.74 -178.86,-98.97 -247.24,-171.66 -68.38,-72.7 -120.56,-156.2 -156.55,-250.49 -35.99,-94.29 -53.99,-194.7 -53.99,-301.23 0,-118.04 19.08,-226.37 57.23,-324.98 38.14,-98.61 91.77,-184.26 160.87,-256.96 69.1,-72.7 150.79,-129.2 245.08,-169.51 94.29,-40.31 197.58,-60.46 309.87,-60.46 95.01,0 181.38,12.95 259.12,38.86 77.74,25.92 143.24,55.43 196.5,88.54l-90.69 211.61c-41.75,-28.79 -93.21,-56.14 -154.39,-82.05 -61.19,-25.91 -129.2,-38.87 -204.06,-38.87 -97.89,0 -188.23,25.91 -271,77.74 -82.78,51.82 -149,121.64 -198.66,209.45 -49.67,87.82 -74.5,186.43 -74.5,295.84 0,110.84 22.67,210.17 68.02,297.99 45.35,87.81 109.77,156.91 193.26,207.29 83.5,50.39 181.39,75.58 293.67,75.58 80.62,0 151.52,-12.24 212.7,-36.71 61.18,-24.47 111.21,-52.54 150.08,-84.21l97.17 202.98zm231.05 -1446.77l1042.96 0 0 218.1 -414.59 0 0 1347.43 -226.73 0 0 -1347.43 -401.64 0 0 -218.1zm1371.18 0l224.58 0 0 1565.53 -224.58 0 0 -1565.53zm572.23 783.85c0,-107.97 20.52,-210.18 61.54,-306.63 41.03,-96.45 98.25,-181.75 171.67,-255.89 73.42,-74.13 158.35,-132.44 254.81,-174.9 96.45,-42.47 199.38,-63.7 308.78,-63.7 109.41,0 212.7,21.23 309.87,63.7 97.17,42.46 182.82,100.77 256.96,174.9 74.14,74.14 132.08,159.44 173.83,255.89 41.75,96.45 62.62,198.66 62.62,306.63 0,110.84 -20.87,214.49 -62.62,310.94 -41.75,96.45 -99.69,181.39 -173.83,254.81 -74.14,73.41 -159.79,130.64 -256.96,171.66 -97.17,41.03 -200.46,61.54 -309.87,61.54 -109.4,0 -212.33,-20.51 -308.78,-61.54 -96.46,-41.02 -181.39,-97.53 -254.81,-169.51 -73.42,-71.97 -130.64,-156.55 -171.67,-253.72 -41.02,-97.17 -61.54,-201.9 -61.54,-314.18zm233.21 2.15c0,106.53 25.19,203.7 75.58,291.52 50.38,87.81 118.76,157.63 205.14,209.45 86.37,51.83 182.82,77.74 289.35,77.74 105.09,0 200.1,-25.91 285.03,-77.74 84.94,-51.82 152.6,-121.64 202.98,-209.45 50.39,-87.82 75.58,-185.71 75.58,-293.67 0,-107.97 -25.55,-206.22 -76.66,-294.76 -51.1,-88.53 -119.48,-158.71 -205.13,-210.53 -85.66,-51.83 -181.03,-77.74 -286.12,-77.74 -106.53,0 -202.62,26.27 -288.27,78.82 -85.66,52.54 -153.32,123.08 -202.98,211.61 -49.67,88.54 -74.5,186.79 -74.5,294.75zm3074.91 833.51l-1207.07 -1204.91 66.94 21.59 4.31 1129.34 -226.73 0 0 -1615.19 8.64 0 1191.96 1204.91 -51.82 -12.95 -4.32 -1142.3 224.57 0 0 1619.51 -6.48 0z"/>
  <path class="fil3" d="M3562.67 28838.11c-12.96,0 -33.83,0 -62.62,0 -28.79,0 -58.3,0 -88.54,0 -30.23,0 -56.14,0 -77.73,0 -21.6,0 -32.39,0 -32.39,0l-740.66 -982.5c-12.96,-20.16 -28.43,-45.71 -46.43,-76.66 -17.99,-30.95 -33.47,-65.5 -46.42,-103.65 -12.96,-38.15 -19.44,-77.38 -19.44,-117.68 0,-60.47 15.12,-117.69 45.35,-171.67 30.23,-53.99 74.14,-98.25 131.72,-132.8 57.58,-34.55 128.12,-51.83 211.62,-51.83 87.81,0 165.91,17.28 234.29,51.83 68.38,34.55 124.16,75.57 167.35,123.08l-112.29 151.15c-44.63,-41.74 -87.81,-74.85 -129.56,-99.33 -41.75,-24.47 -83.5,-36.7 -125.24,-36.7 -60.47,0 -107.25,17.99 -140.36,53.98 -33.11,35.99 -49.67,79.18 -49.67,129.56 0,25.91 5.04,52.18 15.12,78.82 10.08,26.63 20.87,49.66 32.39,69.1 11.52,19.43 18.71,31.31 21.59,35.63l811.92 1079.67zm-803.28 -747.14c-53.26,0 -103.29,13.32 -150.07,39.95 -46.79,26.63 -84.94,61.9 -114.45,105.81 -29.51,43.91 -44.27,93.21 -44.27,147.92 0,53.26 14.04,100.41 42.11,141.43 28.07,41.03 65.86,73.06 113.37,96.1 47.5,23.03 100.05,34.54 157.63,34.54 79.18,0 144.32,-17.63 195.42,-52.9 51.1,-35.27 88.17,-77.38 111.21,-126.32l144.67 127.4c-37.43,70.54 -97.17,130.64 -179.22,180.31 -82.06,49.66 -182.83,74.49 -302.31,74.49 -97.89,0 -186.07,-20.15 -264.52,-60.46 -78.46,-40.31 -140.36,-95.37 -185.71,-165.19 -45.34,-69.82 -68.02,-149.35 -68.02,-238.61 0,-67.66 15.12,-130.28 45.35,-187.86 30.23,-57.58 71.26,-107.97 123.08,-151.15 51.83,-43.19 109.77,-77.38 173.83,-102.57 64.06,-25.2 129.92,-38.51 197.58,-39.95l4.32 177.06zm529.04 -177.06l209.46 0 -256.96 652.12 -161.96 -101.49 209.46 -550.63zm1308.57 -641.33c109.41,0 206.58,19.08 291.52,57.22 84.93,38.15 151.51,93.58 199.74,166.27 48.22,72.7 72.34,162.32 72.34,268.84 0,61.9 -9.36,123.09 -28.08,183.55 -18.71,60.46 -48.58,115.16 -89.61,164.11 -41.03,48.94 -95.73,88.17 -164.11,117.68 -68.38,29.51 -152.23,44.27 -251.56,44.27l-231.05 0 0 563.59 -224.58 0 0 -1565.53 425.39 0zm25.92 783.85c80.61,0 142.87,-15.48 186.78,-46.43 43.91,-30.95 74.5,-68.38 91.77,-112.29 17.28,-43.9 25.92,-85.29 25.92,-124.16 0,-28.79 -5.04,-59.38 -15.12,-91.77 -10.08,-32.39 -26.27,-63.34 -48.59,-92.85 -22.31,-29.52 -52.18,-53.27 -89.61,-71.26 -37.43,-18 -83.49,-26.99 -138.2,-26.99l-239.68 0 0 565.75 226.73 0zm263.44 133.88l405.96 647.8 -263.45 0 -412.43 -643.49 269.92 -4.31zm719.06 -917.73l1025.69 0 0 218.1 -801.11 0 0 451.3 714.74 0 0 218.09 -714.74 0 0 459.95 831.35 0 0 218.09 -1055.93 0 0 -1565.53zm2776.92 1619.51l-1207.07 -1204.91 66.94 21.59 4.31 1129.34 -226.73 0 0 -1615.19 8.64 0 1191.96 1204.91 -51.82 -12.95 -4.32 -1142.3 224.57 0 0 1619.51 -6.48 0zm354.13 -835.66c0,-107.97 20.52,-210.18 61.54,-306.63 41.03,-96.45 98.25,-181.75 171.67,-255.89 73.42,-74.13 158.35,-132.44 254.81,-174.9 96.45,-42.47 199.38,-63.7 308.78,-63.7 109.41,0 212.7,21.23 309.87,63.7 97.17,42.46 182.82,100.77 256.96,174.9 74.14,74.14 132.08,159.44 173.83,255.89 41.75,96.45 62.62,198.66 62.62,306.63 0,110.84 -20.87,214.49 -62.62,310.94 -41.75,96.45 -99.69,181.39 -173.83,254.81 -74.14,73.41 -159.79,130.64 -256.96,171.66 -97.17,41.03 -200.46,61.54 -309.87,61.54 -109.4,0 -212.33,-20.51 -308.78,-61.54 -96.46,-41.02 -181.39,-97.53 -254.81,-169.51 -73.42,-71.97 -130.64,-156.55 -171.67,-253.72 -41.02,-97.17 -61.54,-201.9 -61.54,-314.18zm233.21 2.15c0,106.53 25.19,203.7 75.58,291.52 50.38,87.81 118.76,157.63 205.14,209.45 86.37,51.83 182.82,77.74 289.35,77.74 105.09,0 200.1,-25.91 285.03,-77.74 84.94,-51.82 152.6,-121.64 202.98,-209.45 50.39,-87.82 75.58,-185.71 75.58,-293.67 0,-107.97 -25.55,-206.22 -76.66,-294.76 -51.1,-88.53 -119.48,-158.71 -205.13,-210.53 -85.66,-51.83 -181.03,-77.74 -286.12,-77.74 -106.53,0 -202.62,26.27 -288.27,78.82 -85.66,52.54 -153.32,123.08 -202.98,211.61 -49.67,88.54 -74.5,186.79 -74.5,294.75zm1744.75 -786l507.45 1267.54 -129.56 -25.91 475.06 -1241.63 267.76 0 -695.31 1638.95 -695.32 -1638.95 269.92 0zm1066.72 1565.53l688.83 -1630.31 12.96 0 688.83 1630.31 -261.28 0 -500.97 -1276.18 161.95 -105.8 -565.75 1381.98 -224.57 0zm416.76 -587.34l561.43 0 77.73 194.34 -706.1 0 66.94 -194.34zm1019.21 -978.19l1042.96 0 0 218.1 -414.59 0 0 1347.43 -226.73 0 0 -1347.43 -401.64 0 0 -218.1zm1371.18 0l224.58 0 0 1565.53 -224.58 0 0 -1565.53zm572.23 783.85c0,-107.97 20.52,-210.18 61.54,-306.63 41.03,-96.45 98.25,-181.75 171.67,-255.89 73.42,-74.13 158.35,-132.44 254.81,-174.9 96.45,-42.47 199.38,-63.7 308.78,-63.7 109.41,0 212.7,21.23 309.87,63.7 97.17,42.46 182.82,100.77 256.96,174.9 74.14,74.14 132.08,159.44 173.83,255.89 41.75,96.45 62.62,198.66 62.62,306.63 0,110.84 -20.87,214.49 -62.62,310.94 -41.75,96.45 -99.69,181.39 -173.83,254.81 -74.14,73.41 -159.79,130.64 -256.96,171.66 -97.17,41.03 -200.46,61.54 -309.87,61.54 -109.4,0 -212.33,-20.51 -308.78,-61.54 -96.46,-41.02 -181.39,-97.53 -254.81,-169.51 -73.42,-71.97 -130.64,-156.55 -171.67,-253.72 -41.02,-97.17 -61.54,-201.9 -61.54,-314.18zm233.21 2.15c0,106.53 25.19,203.7 75.58,291.52 50.38,87.81 118.76,157.63 205.14,209.45 86.37,51.83 182.82,77.74 289.35,77.74 105.09,0 200.1,-25.91 285.03,-77.74 84.94,-51.82 152.6,-121.64 202.98,-209.45 50.39,-87.82 75.58,-185.71 75.58,-293.67 0,-107.97 -25.55,-206.22 -76.66,-294.76 -51.1,-88.53 -119.48,-158.71 -205.13,-210.53 -85.66,-51.83 -181.03,-77.74 -286.12,-77.74 -106.53,0 -202.62,26.27 -288.27,78.82 -85.66,52.54 -153.32,123.08 -202.98,211.61 -49.67,88.54 -74.5,186.79 -74.5,294.75zm3074.91 833.51l-1207.07 -1204.91 66.94 21.59 4.31 1129.34 -226.73 0 0 -1615.19 8.64 0 1191.96 1204.91 -51.82 -12.95 -4.32 -1142.3 224.57 0 0 1619.51 -6.48 0z"/>
 </g>
</svg>
