<?xml version="1.0" encoding="UTF-8"?>
<!DOCTYPE svg PUBLIC "-//W3C//DTD SVG 1.1//EN" "http://www.w3.org/Graphics/SVG/1.1/DTD/svg11.dtd">
<!-- Creator: CorelDRAW -->
<svg xmlns="http://www.w3.org/2000/svg" xml:space="preserve" width="270.933mm" height="203.2mm" version="1.1" style="shape-rendering:geometricPrecision; text-rendering:geometricPrecision; image-rendering:optimizeQuality; fill-rule:evenodd; clip-rule:evenodd"
viewBox="0 0 27093.32 20320"
 xmlns:xlink="http://www.w3.org/1999/xlink"
 xmlns:xodm="http://www.corel.com/coreldraw/odm/2003">
 <defs>
  <style type="text/css">
   <![CDATA[
    .fil2 {fill:#8B93A6}
    .fil3 {fill:#8E8E8E}
    .fil4 {fill:#A5AAB5}
    .fil0 {fill:#F1B694}
    .fil1 {fill:#F9E08E}
   ]]>
  </style>
 </defs>
 <g id="Camada_x0020_1">
  <metadata id="CorelCorpID_0Corel-Layer"/>
  <path class="fil0" d="M10474.52 3251.47c-25.68,30.39 -312.32,214.59 -371,252.89 -83.56,54.57 -295,212.29 -381.12,234.22 -139.94,122.01 -335.3,232.66 -505.53,345.56 -153.81,101.99 -1535.48,1003.86 -1546.19,1029.1 -15.27,35.89 0.1,4276.63 -3.21,4859.07 -1.4,240.28 -45.71,148.5 733.7,159.82 7.11,0.1 47.66,-0.05 52.42,-0.85l38.9 -15.42c34.2,-62.44 -0.2,-4070.06 10.31,-4541.15l613.73 -418.87c2.36,-2.65 5.96,-5.75 7.76,-7.31l56.58 -42.1c22.48,-15.92 28.24,-21.68 55.28,-39.96l859.91 -565.06c284.18,-188.01 736.4,-472.94 981.33,-647.48l908.93 -598.21c312.57,-201.42 596.55,-416.81 907.52,-596 50.92,15.52 480,302.66 553.6,353.12 173.29,118.87 348.78,236.42 548.2,361.69l2743.26 1817.46c187.05,124.97 382.61,241.68 554.1,366.1 12.01,545.99 1.8,1156.16 1.05,1713.22 -0.1,95.02 0.55,190.15 0.35,285.18 -0.15,100.99 20.13,173.54 16.97,271.57l-17.32 556.2c-0.05,224.76 13.37,1621.1 -6.91,1717.23l-4412.47 2.35c-17.98,-179.99 -8.51,-253.54 -122.62,-356.43 -109.5,-98.84 -183.5,-107.8 -374.05,-111.25 -181.6,-3.31 -818.16,-44.61 -946.13,-14.47l-7.31 225.25c-84.47,11.67 -568.12,-8.31 -716.42,-12.57 -117.21,-3.4 -148.8,-20.52 -215.95,41.81 -17.67,108.3 15.93,146.7 120.12,152.41 88.77,4.85 181.34,1.15 270.91,5.45 160.12,7.71 376.01,-1.7 533.43,16.73l-11.57 646.57c-60.03,18.98 -616.13,-5.11 -751.27,-9.16 -94.82,-2.85 -186.8,-11.92 -192.86,85.47 -9.31,149 204.13,110.24 423.68,115 172.28,3.76 341.46,-0.85 506.33,16.52l2.85 239.68c274.03,12.36 540.49,20.53 821.27,26.58 321.28,6.91 506.53,11.02 609.67,-235.77l5300.62 -1.65 3.36 -5834.34c-171.83,-93.88 -316.58,-198.27 -478.7,-303.56l-4503.09 -2976.53c-261.11,-182.4 -280.33,-148.25 -534.58,25.33l-1662.55 1093.88c-150.25,98.64 -315.67,224.56 -475.29,312.68z"/>
  <path class="fil0" d="M13037.19 13943.43c55.47,4.66 49.62,59.38 61.58,123.67 10.97,59.23 24.58,128.07 37.05,183.75 24.33,108.8 49.82,239.82 77.46,343.36 110.5,414.37 203.92,990.19 306.01,1404 134.48,545.39 59.38,523.76 338.46,522.71 300.15,-1.1 233.06,59.68 359.18,-505.18 51.57,-231.06 98.19,-464.23 151.41,-704.15 49.87,-224.61 104.19,-454.57 158.16,-693.24l130.73 -617.44c13.57,-49.57 3.46,-48.01 42.26,-57.83 18.47,42.56 8.36,1931.27 8.56,2286.15 0.1,115.85 -20.63,208.78 45.71,288.69 117.56,15.57 462.28,16.77 583.59,6.71 101.79,-8.46 106.39,-72.6 106.19,-172.69 -0.2,-99.68 -0.55,-199.42 -0.6,-299.15 -0.25,-583.54 15.12,-3691.1 -1.15,-3825.88 -13.02,-107.89 -91.32,-97.88 -199.22,-97.23 -199.27,1.15 -398.94,-1.75 -598.11,-0.5 -170.73,1 -155.01,70.85 -217.94,365.19l-325.74 1453.72c-34.35,161.82 -68.45,317.78 -104.59,481.95l-130.38 474.09c-64.44,-189.45 -266.06,-1197.32 -342.61,-1519.25 -21.88,-91.98 -50.12,-204.43 -69.95,-304.81 -41.35,-208.84 -101.14,-417.57 -136.63,-624.8 -62.59,-365.44 -52.02,-325.04 -422.78,-325.29 -523.5,-0.4 -588.99,-55.37 -587.49,176.59 2,319.98 -10.61,4071.41 3.6,4138.6 23.99,112.95 178.1,79.51 298.81,79.41 468.48,-0.25 423.57,49.41 423.82,-322.49 0.25,-305.81 -15.27,-2119.27 4.61,-2258.66z"/>
  <path class="fil0" d="M8345.94 16517.17c136.08,19.22 332.3,7.11 475.14,7.41 228.11,0.5 241.78,18.72 291.9,-193.06 126.42,-534.08 232.91,-1054.93 364.09,-1579.34l185.75 -783.11 559.86 2419.42c19.88,95.38 44.46,128.53 144.95,132.83 653.93,28.04 626.19,23.03 647.77,-180.29 7.71,-72.3 19.73,-168.23 30.44,-252.99 121.17,-958.3 215.7,-1955.9 332.55,-2921.91 16.03,-132.43 118.61,-932.61 82.67,-995.09 -44.76,-66.74 -274.68,-41.16 -413.51,-41.21 -198.87,-0.1 -289.2,-46.06 -309.72,153.96 -36.1,351.22 -209.69,2476.3 -233.32,2516.1 -35.65,-29.99 -145.25,-614.33 -161.42,-701.75 -104.34,-564.86 -270.36,-1225.86 -380.36,-1818.51 -34.5,-185.7 -103.74,-149.8 -299.91,-149.75 -191.31,0.05 -258.85,-37.1 -295.9,141.89 -82.86,400.19 -509.14,2481.71 -545.84,2528.17 -43.05,-64.88 -140.99,-1706.46 -175.73,-1948.88 -120.17,-838.74 124.16,-715.72 -598.21,-721.43 -250.69,-1.95 -212.89,19.68 -146.1,582.59 75.7,637.96 124.97,1284.54 206.33,1922.25 40.4,316.58 56.87,638.56 102.69,955.24 22.93,158.77 37.85,310.42 54.77,475.44 14.02,136.14 4.91,343.12 81.11,452.02z"/>
  <path class="fil0" d="M16301.41 16518.17l515.94 6.61c141.95,0.7 195.67,24.68 195.67,-132.68l-0.1 -1235.07c0,-136.29 -13.12,-105.2 333.85,-104.9 361.04,0.3 691.69,34 933.76,-224.15 164.13,-175.04 182.15,-411.46 182.15,-716.07l0.3 -1153.66c-1.6,-929.96 -677.57,-827.17 -1347.02,-828.32l-624.5 -0.1c-89.82,0.05 -199.82,-23.78 -222.95,60.98 -14.27,52.22 -4.71,3419.03 -4.71,3794.14 0,150.7 -32.99,428.63 37.61,533.22z"/>
  <path class="fil1" d="M9116.53 5155.84c11.62,17.48 9.32,1.86 4.81,30.04 -7.71,48.92 -250.49,540.14 -281.18,723.98 135.93,-16.82 725.28,-384.72 833.68,-401.94 -3.96,109.35 -97.33,383.77 -127.78,506.94 -23.88,96.68 -42.05,174.13 -67.34,260.9 -11.96,40.95 -29.14,78.66 -39.75,120.11 -13.87,54.07 -16.07,86.12 -31.84,132.88 -23.94,71.1 -262.71,950.84 -265.36,1032.2 117.11,-20.63 670.4,-344.37 773.14,-352.88l-346.31 2126.73c-19.98,173.28 -110.9,638.41 -110.9,734.09 36.74,-29.39 16.47,-5.96 39,-59.78 13.22,-31.59 20.08,-50.97 31.19,-77.1l662.15 -1617.54c87.91,-185.35 162.87,-391.03 241.32,-588.35 41.26,-103.74 86.17,-185 116.71,-291.89l300.86 -730.39c86.31,-237.07 530.01,-1226.01 540.78,-1347.42 -143.49,30.19 -741.2,374.4 -872.73,394.63 0.85,-74.5 424.02,-1447.96 489.36,-1658.39 26.04,-83.82 54.12,-151.76 71.05,-238.73 -244.93,174.54 -697.15,459.47 -981.33,647.48l-859.91 565.06c-27.04,18.28 -32.8,24.04 -55.28,39.96l-56.58 42.1c-1.8,1.56 -5.4,4.66 -7.76,7.31z"/>
  <path class="fil2" d="M13849.94 8601.41c61.28,35.19 1108.6,354.02 1159.87,384.12l-1314.28 -140.44c-131.18,187.85 -287.44,467.58 -421.67,679.62 -49.07,77.55 -120.11,171.68 -58.18,275.47 54.92,91.97 137.29,88.07 275.52,87.72l3339.67 -0.05c126.32,0 236.02,21.63 307.72,-55.88 198.62,-214.74 -230.96,-401.69 -457.37,-565.41l-1743.46 -1228.92c-570.52,-401.04 -492.37,-413.41 -809.55,101.64 -52.52,85.27 -255.74,389.68 -278.27,462.13z"/>
  <path class="fil3" d="M18472.49 4380.29l-4.15 6819.13 -5615.2 2.3c-87.12,0.1 -110.65,21.93 -78.96,98.04 86.32,32.04 4203.59,13.42 4979.89,12.81 207.03,-0.15 523.16,-18.87 717.22,4.21l1.25 338.46c-0.15,81.81 26.59,104.29 94.98,79.91 33.25,-75.56 14.62,-313.68 15.97,-419.32 325.34,-24.18 910.53,18.32 1245.99,-11.87 51.27,-128.37 -58.88,-102.14 -242.68,-102.14l-998.3 -1.55c-13.32,-122.31 -5.71,-249.64 -5.46,-372.95l-0.05 -6447.03c0.15,-146.24 -110.5,-138.08 -110.5,0z"/>
  <path class="fil3" d="M13354.47 7893.5l0.75 1091.02c52.92,-25.98 69.29,-84.31 100.84,-132.73 32.64,-50.06 58.12,-100.28 93.12,-151.7 107.9,-158.57 113.25,-113.35 113.05,-356.58 -0.55,-715.57 70.15,-621.49 -368.64,-807.2 -124.72,-52.72 -55.43,-26.88 -103.59,-138.88 -47.82,-111.3 -151.66,-157.37 -271.07,-205.78 -223.7,-90.72 -450.31,-184.85 -678.27,-273.67 -166.52,-64.89 -496.27,-246.13 -645.82,86.01 -59.38,131.93 -22.63,269.87 56.87,355.54 78.66,84.71 187.31,111.8 314.38,161.41 222.35,86.77 448.96,184.05 675.41,275.48 116.21,46.96 237.12,104.14 371.66,42.45 99.28,-45.46 104.64,-64.63 341.31,54.63z"/>
  <path class="fil3" d="M7338.83 4899.4l-1.6 -519.11c-0.1,-51.06 0.85,-106.69 -61.59,-96.23 -72.4,12.17 -44.91,196.02 -44.91,259.1l-0.3 435.79 -579.83 393.34c-55.48,36.55 -200.12,86.01 -137.44,176.94 67.44,31.44 130.83,-44.61 180.5,-79.56 77.5,-54.43 491.56,-332.85 536.42,-344.27 9.66,2173.24 -0.6,4354.34 0.6,6529.84 0.05,35.15 6.11,58.58 15.82,80.61l61.49 10.71c20.12,-28.49 29.29,-40.8 29.24,-91.32l4.55 -6623.71c415.06,-256.8 885.9,-612.98 1276.03,-853.96 83.01,-51.32 133.88,-86.22 212.94,-140.54 57.88,-39.7 200.07,-114.15 209.58,-161.97 32.84,-165.77 -196.87,25.03 -197.02,25.13l-1066.69 712.12c-99.53,67.89 -328.79,244.83 -437.79,287.09z"/>
  <path class="fil1" d="M9722.4 3738.58c86.12,-21.93 297.56,-179.65 381.12,-234.22 58.68,-38.3 345.32,-222.5 371,-252.89 -40.5,5.86 -23.58,-30.09 -17.82,-70.15 4.95,-34.54 11.86,-62.68 15.82,-93.27l198.42 -1381.77 -125.72 -1 -620.69 1512.99c-46.87,121.47 -187.86,404.4 -202.13,520.31z"/>
  <path class="fil2" d="M17813.1 17410.07c-111.45,33.5 -157.41,50.37 -219.8,138.14 -168.63,237.07 5.91,652.03 382.07,572.08 468.68,-99.59 282.08,-843.7 -162.27,-710.22z"/>
  <path class="fil2" d="M21932.17 17403.02c-487.21,114.25 -342.31,791.47 120.77,721.77 191.51,-28.84 328.94,-199.42 293.19,-429.88 -27.18,-175.49 -204.62,-340.96 -413.96,-291.89z"/>
  <path class="fil2" d="M4202.58 17403.52c-486.85,116.45 -340.86,801.38 131.88,719.87 183.05,-31.59 316.78,-201.17 284.99,-424.27 -26.09,-182.7 -213.04,-344.32 -416.87,-295.6z"/>
  <path class="fil2" d="M11531.9 17401.86c-481.15,99.49 -356.88,797.98 121.67,722.38 188.1,-29.74 323.53,-208.78 289.89,-428.73 -25.84,-168.83 -204.53,-336.45 -411.56,-293.65z"/>
  <path class="fil4" d="M13832.31 17722.25c-21.57,27.13 -213.33,163.47 -89.12,330.34 84.62,113.71 253.45,93.98 372.51,31.25 51.82,55.72 53.07,43.96 142.59,38.85 -25.48,-74.2 -39.1,-53.87 -69.14,-115.41 37,-40.05 75.9,-58.88 90.92,-122.16 -34.6,-39.51 -27.84,-34.25 -69.34,-53.63 -43.76,30.35 -58.58,64.69 -95.03,85.92 -30.89,-27.34 -94.13,-115.61 -120.22,-154.46 29.39,-58.33 100.69,-75.65 114.36,-190.06 12.02,-100.13 -47.21,-169.37 -129.78,-185.25 -215.19,-41.35 -268.46,184.35 -147.75,334.61z"/>
  <path class="fil2" d="M15125.81 18119.63l106.35 1.36 6.01 -263.76 99.38 -0.4 143.6 262.1 115.7 0.35 -154.71 -285.53c56.13,-40.36 95.48,-63.29 117.21,-133.88 82.11,-266.76 -218.29,-322.54 -431.23,-282.79l-2.31 702.55z"/>
  <path class="fil2" d="M7409.02 18116.18l106.85 2.55 2.15 -259.75 108.7 -2.75 134.48 261.35 117.51 3.16c-20.48,-104.09 -122.52,-188.96 -151.36,-289.9 79.26,-62.08 201.88,-188.95 90.63,-326.99 -78.91,-97.93 -246.44,-104.39 -404.5,-89.37l-4.46 701.7z"/>
  <path class="fil4" d="M19396.79 18125.29l121.52 -0.1 57.63 -138.79 318.08 -0.9c78.7,140.29 13.76,140.94 185.45,137.39 -12.37,-68.19 -295.1,-665.45 -343.32,-707.31 -23.28,18.08 -11.01,2.86 -31.09,32.2 -0.55,0.8 -20.68,42.25 -22.43,45.91 -15.02,31.74 -27.54,52.47 -40.3,81.91 -23.89,55.22 -51.52,119.11 -81.56,176.34 -37.61,71.59 -152.66,303.11 -163.98,373.35z"/>
  <path class="fil2" d="M12298.89 18120.39l109.6 0.55 5.05 -441.85c95.78,54.47 326.3,398.49 425.83,437.09l1.25 -701.95 -107.59 -2.65 -5.41 452.66c-71.4,-73.55 -370.95,-428.98 -425.73,-448.71l-3 704.86z"/>
  <path class="fil2" d="M23134.4 17859.13c-41.66,-24.68 -67.94,-68.59 -102.49,-106.54 -36.8,-40.51 -66.84,-72 -105.09,-112.1l-153.76 -171.59c-33.04,-37.9 -16.32,-33.64 -65.79,-49.56 -1.8,113.95 -14.17,630.05 9.22,701.6l92.02 0.25 5.36 -442.6c77.65,40.05 338,399.64 427.02,439.29l2.31 -705.75 -105.65 2 -3.15 445z"/>
  <path class="fil2" d="M17068.34 17853.17c-52.27,-27.98 -238.52,-252.14 -311.72,-327.94 -21.93,-22.73 -30.39,-34.35 -50.37,-58.03 -33.34,-39.7 -16.87,-34.14 -67.49,-49.21 -1.7,118.96 -16.27,626.29 9.41,703.5l92.53 -0.05 6.46 -445.11c52.52,30 170.08,170.19 210.23,217.95 36.35,43.21 62.34,68.44 103.54,113.65 38.25,41.91 59.83,87.92 113.11,110.3l2 -707.1 -105.79 3.3 -1.91 438.74z"/>
  <path class="fil2" d="M5406.51 17852.37c-117.61,-58.83 -331.65,-408.95 -426.87,-431.88l-0.15 695.64 105.99 2.4 1 -440.74c54.82,28.24 169.68,177.29 212.89,226.4 32.84,37.3 176.79,205.23 215.84,206.98l0.7 -693.13 -107.59 -4.86 -1.81 439.19z"/>
  <path class="fil2" d="M8732.46 17416.73l-107.79 -3.85c-28.44,298.05 73.25,613.28 -143.2,615.23 -232.56,2.15 -108.99,-349.07 -151.05,-614.93l-102.24 -0.6c-10.11,86.26 -11.76,400.09 0.1,481.7 47.12,323.99 465.78,318.58 503.68,-1.45 11.37,-96.03 11.82,-380.52 0.5,-476.1z"/>
  <path class="fil2" d="M3580.44 18075.12l-16.47 -79.05c-21.93,-0.6 -410.71,146.4 -408.05,-233.22 1.7,-249.24 195.41,-299.7 394.83,-220.55 26.54,-47.01 27.84,-39.8 37.5,-99.63 -149.1,-49.02 -237.17,-77.36 -377.91,3.85 -97.53,56.33 -170.48,156.77 -170.73,316.23 -0.55,380.77 401.74,420.92 540.83,312.37z"/>
  <path class="fil2" d="M9624.17 18079.28c-11.52,-84.21 -8.81,-95.78 -82.01,-73.25 -388.08,119.41 -415.61,-336.4 -248.34,-462.62 108.85,-82.12 202.18,-35.5 298.41,-0.31l41.55 -97.63c-278.02,-114.4 -555.25,9.16 -555.2,317.48 0,295.95 281.33,451.61 545.59,316.33z"/>
  <path class="fil2" d="M5915.85 17983.65c-24.98,32.8 -34.94,47.36 -40.95,91.72 238.27,107.65 435.44,36.05 417.46,-160.86 -20.93,-229.91 -343.51,-159.12 -296.75,-386.38 89.42,-50.26 129.48,-22.58 218.9,5.16l49.01 -83.66c-325.39,-163.02 -488.96,132.68 -321.13,286.94 64.14,58.93 212.44,100.13 230.71,179.14 17.27,74.6 -27.59,107.84 -93.73,112.35 -79.55,5.41 -107.74,-26.28 -163.52,-44.41z"/>
  <path class="fil2" d="M18840.14 18113.73c44.51,-21.88 75.45,-112.46 96.48,-159.77 44.81,-100.74 231.56,-487.56 239.12,-539.63l-104.84 -2.55 -217.94 473.84c-43.26,-41.21 -187.26,-411.51 -218.05,-472.44l-107.59 -1.7c2.85,48.91 271.71,639.71 312.82,702.25z"/>
  <polygon class="fil2" points="15950.48,18120.24 16291.64,18121.74 16295.7,18029.61 16064.58,18023.96 16063.18,17797.05 16223.45,17795.55 16225.9,17704.82 16061.83,17696.51 16062.43,17510.36 16261.2,17505.05 16262.35,17412.23 15953.93,17411.83 "/>
  <path class="fil2" d="M20331.71 17503.45l176.04 3.76 4 607.82 109.45 5.56 2 -610.33 176.64 -4.96 3.96 -81.61 -103.34 -13.42c-40.81,0.11 -81.71,0.71 -122.62,0.71 -80.26,0 -161.27,-3.01 -241.23,3l-4.9 89.47z"/>
  <path class="fil2" d="M6602.38 17423.64l-2.85 67.84 90.12 15.28c37.65,0.9 48.57,-2.26 87.67,4.65l1.85 607.87 103.84 0.2 2.3 -607.72 184.45 -7.26 1.11 -91.02c-111.25,-7.41 -387.58,-27.79 -468.49,10.16z"/>
  <path class="fil2" d="M9929.28 17505.55l177.49 1.56 2.81 610.02 106.09 0.85 1.35 -611.37 186.45 -2.76c6.61,-108.8 26.39,-93.07 -184.04,-92.87 -95.08,0.1 -190.21,-0.45 -285.29,0.45l-4.86 94.12z"/>
 </g>
</svg>
